<?xml version="1.0" encoding="utf-8"?>
<!-- Generator: Adobe Illustrator 22.0.1, SVG Export Plug-In . SVG Version: 6.00 Build 0)  -->
<!DOCTYPE svg PUBLIC "-//W3C//DTD SVG 1.1//EN" "http://www.w3.org/Graphics/SVG/1.1/DTD/svg11.dtd">
<svg version="1.1" id="Layer_1" xmlns="http://www.w3.org/2000/svg" xmlns:xlink="http://www.w3.org/1999/xlink" x="0px" y="0px"
	 viewBox="0 0 300 300" style="enable-background:new 0 0 300 300;" xml:space="preserve">
<style type="text/css">
	.st0{fill:none;}
	.st1{fill:#B1DBDB;}
	.st2{fill:#D4EAEA;}
	.st3{fill:#99002B;}
	.st4{fill:#98002A;}
	.st5{fill:#E5C1CB;}
	.st6{fill:#D89FAF;}
	.st7{fill:#64B7B7;}
	.st8{fill:#65B9B9;}
	.st9{fill:#E894A7;}
	.st10{fill:#A64F6A;}

	g:hover .extra-style {
		fill:blue;
		<!-- transition: all 0.5s; -->
		
	}
	
	g {
  margin: 5em;
  animation: .8s infinite beatHeart;
}

@keyframes beatHeart {


  0% {
    transform: scale(0.9);
    transition: all 1s;
  }
  25% {
    transform: scale(1);
    transition: all 1s;
  }
  40% {
    transform: scale(0.9);
    transition: all 1s;
  }
  60% {
    transform: scale(1);
    transition: all 1s;
  }
  100% {
    transform: scale(0.9);
    transition: all 1s;
  }

}
</style>

<g>
	<g class="extra-group">
	<path class="st3" d="M81,124.8c0.1-3.2,0-6.3-0.3-9.5c-5.3-0.7-18.3-2.4-20.3-3.4c-2.4-1.2-6.1,9.7-2.4,10.9s10.9,3.6,10.9,3.6
		L56.2,132c0,0-4.3,5.5,3,11.6c0.9,0.8,6.8-1.5,10.1-2.8C73,133.9,76.9,128.7,81,124.8z"/>
	<path class="st3" d="M138.6,253.7l-0.8,0l2.4,24.3c0,0,20.1,6.1,29.2-4.3l-1.3-13.1c-5.2-1.4-9.9-2.6-13.9-3.3
		C148.4,256.3,143.2,255.1,138.6,253.7z"/>
	<path class="st4" d="M220.2,135.6c0.1,0,0.3,0.1,0.4,0.1c0.1,0,0.2,0,0.2,0c0.8-0.4,1.6-0.2,2.4-0.2c0,0,0,0.1,0,0.1c0,0,0,0,0.1,0
		c4.9-0.1,9.9-0.2,14.8-0.4c1.1,0,1.9-0.6,2.5-1.4c1.8-2,2.1-4.5,2.1-7c0,0-0.1,0-0.1,0c0-0.9,0-1.8,0-2.7c0,0,0.1,0,0.1,0
		c0-1.4-0.1-2.8-0.2-4.2c-0.1-1.1-0.7-1.6-1.6-1.7c-1.1-0.1-2.1-0.3-3.2-0.3c-3.8,0-7.5,0.2-11.2,0.4c-5,0.4-9.9,1-15,1.6
		c2.9-1.4,5.9-2.3,8.9-3.2c6.4-1.9,12.9-3.4,19.4-5c1.7-0.4,2.6-1.5,2.7-3.3c0-0.6,0-1.2,0-1.8c-0.1-3.1-2.5-6.4-5.3-7.2
		c-0.6,0-1.1,0-1.7,0c-4.6,0.4-8.9,1.8-13.3,3c-9.6,2.5-19.1,5.4-28.7,7.9c-0.3,0.1-0.6,0.2-0.8,0.5
		C209.7,118,216,126.5,220.2,135.6z"/>
</g>
<path class="st5" d="M242.7,126.8C242.7,126.8,242.7,126.8,242.7,126.8c0.1,0,0.2,0,0.2,0c0-0.9,0-1.8,0-2.6c0,0-0.1,0-0.1,0
	c0,0-0.1,0-0.1,0C242.7,125,242.7,125.9,242.7,126.8z"/>
<path class="st6" d="M220.8,135.7c0.8,0,1.6,0,2.4,0c0,0,0-0.1,0-0.1c0,0,0-0.1,0-0.1C222.4,135.4,221.6,135.3,220.8,135.7z"/>
<g>
	<path class="st7" d="M81,124.8c6.9-6.5,14.2-9.3,21-10.2c-0.9-2.6-1.9-9,0.2-25.3c0.2-1.8,0.6-4,1.2-6.5c-0.1-2.3-0.1-4.7-0.2-7
		c-0.1-2.5-0.3-5-0.4-7.5c-0.1-1.1-0.5-1.6-1.5-1.6c-1.9-0.1-3.8-0.3-5.7-0.2c0,0,0,0-0.1,0c0,0,0,0.1,0,0.1c-0.4,0-0.8,0-1.2,0
		c-1.7,0-3.4,0.3-5.1-0.2c-0.2,0-0.3,0-0.5,0c-1.5,0.2-3,0.2-4.5,0.3c-3.6,0.3-6.8,1.5-9.4,4.2c-0.6,0.6-0.8,1.3-0.7,2.2
		c0.2,2.7,0.6,5.4,0.8,8.1c0.2,2,0.1,2.1-1.8,2.7c-2.8,0.8-5.5,1.7-8.3,2.5c-1.4,0.4-2.1,1.2-2.3,2.6c-0.3,2-0.4,4.1-0.4,6.2
		c0,0.3,0,0.6,0,1c0.1,1.9,0.2,3.8,1.6,5.3c1.4,1.5,2.9,2.7,5.2,2.2c2.6-0.5,5.2-0.8,7.8-1.2c1.9-0.3,2.2-0.1,2.5,1.7
		c0.6,3.8,1.1,7.5,1.4,11.3C81,118.5,81.1,121.6,81,124.8z"/>
	<path class="st8" d="M137.8,253.5C137.8,253.5,137.7,253.5,137.8,253.5c-24.4-7.3-35.3-18.9-45.2-27.3c0,0,9.9,30.5,6.3,51.8
		c0,0,19.5,15.8,41.3,0l-2.4-24.3L137.8,253.5z"/>
</g>
<path class="st9" d="M135.2,105c-0.1-0.3-0.3-0.7-0.5-1.2c-1-2.5-2.5-7.2-1.7-12.5C131.3,98,134.1,103.3,135.2,105z"/>
<g>
	<path class="st9" d="M216.2,139.3c2.8,12.5-22.2,28.3-51.1,5.5c0,0-2.1-22.2,10-37.4C175.1,107.4,209.8,111.1,216.2,139.3z
		 M86.9,207.7c0,0-6.7-9.7-10.3-9.7c0,0-1.2-6.1-4.3-8.5c0,0-2.4-7.3-4.9-7.9c0,0,2.4-1.8,0-7.3c0,0,1.8-3,0-6.7
		c0,0,4.3-4.9,1.8-9.1c0,0,4.3-6.1,3-9.1c0,0,12.8-28,35.9-27.4c8,0.2,14,4.3,14,4.3c4.9,3.6,3.6,6.7,3.6,21.3
		c0,2.7,10.9,42-20.1,55.3C105.8,202.9,93,208.4,86.9,207.7z M185.8,248.2c-4.3-1.8-4.9-1.8-4.9-1.8s-3,1.8-3.6,0
		c-0.6-1.8-2.4-4.9-2.4-4.9s-4.9,1.8-3.6,0s-2.4-1.8-2.4-1.8c-1.2-6.1-9.7-6.7-9.7-6.7s0,6.1-2.4,1.2c-2.4-4.9-6.1-4.9-6.1-3
		s-3.6,1.2-3.6,1.2s0.6-3-3-2.4c-3.6,0.6-4.9,0-4.9,0s-7.3-7.3-9.1-3.6c-1.8,3.6-3,1.2-3,1.2c-1.8-3.6-4.3-0.6-5.5-1.2
		c-1.2-0.6,0-2.4,0-2.4c-6.1-5.5-9.7,0-9.7,0v-3c-1.2-3-7.3-0.6-7.3-0.6l-5.5-5.5l9.7-4.9l20.7,12.2c-23.7-31,16.4,1.8,16.4,1.8
		l-10.9-14.6c-8.5-8.5-6.1-27.4-6.1-27.4c4.3-14,2.4-25.5,2.4-25.5c10.3,9.7,12.8-1.8,12.8-1.8c0-1.4,0.1-2.3,0.3-2.9
		c-0.6-0.6-1.2-1.1-1.8-1.7c-2-1.7-4.3,8.5-10.3,0c-6.1-8.5,1.2-37.1,6.1-45c0,0-6.2-14.7,2.7-21c2.5-1.7,7.6-4.6,14.3,2.1
		c0,0,39.8-28.3,59.3-27.7c4.2,0.1,5.8,13.8,2.4,14.6c-9.7,2.4-24.6,7-40.4,27.1c-8.6,10.9-17,17.6-15.2,53.5
		c0.1,1.5-1.2,5.5-3.6,4.9c-2.4-0.6-5.5-1.2-2.4-10.9c0,0-4.2-8.2-5.2,5.8c-0.2,2.6-0.5,3.3-1.2,3c0,0,0,0,0,0
		c3,12.2,12.2,6.1,12.2,6.1c0,6.7,0.6,25.5,3,26.1c2.4,0.6,1.6,2.2,1.8,3c1.4,5,4.9,10.9,4.9,10.9s2.4,1.8,1.8,6.7
		c-0.6,4.9,0.8,5,1.2,6.7c1.6,6.2-0.9,4.6,1.8,9.1c1.6,2.7,3,6.1,3.6,7.9c0.6,1.8,1.8,1.2,3,3.6s3.6,4.9,3.6,4.9s1.2,0.6,4.9,4.3
		C194.3,249.4,190,250,185.8,248.2z M232.3,221.7c-7.9-0.6-0.8,9.1-3,8.5c-9.7-2.4-8.2,6.4-9.7,4.9c-2.4-2.4-7.5-0.8-9.1-2.4
		c-3-3-5-0.5-5.5-1.8c-2.4-7.3-5.3-4.5-5.5-6.7c-0.6-6.1-2.6-4.4-3-6.1c-1.2-4.3-3.4-3.4-3.6-4.9c-1.2-6.7-4.7-5.6-4.9-7.9
		c-0.6-6.7-3.2-4.4-3.6-6.1c-1.2-4.9-2.9-5.2-4.3-6.7c-2.1-2.3-1.7-2.4-2.4-3c-10.3-9.7-11.2-14.8-9.7-20.1c1.8-6.7-2.4-6.1-3-7.3
		c-1.1-2.2,0-9.1,0-9.1s4.7,2,6.1,3c2.1,1.5,0.6,3-1.2,1.8c-1.4-0.9-1.1-1.3-1.1-1.3c0,0,0,0-0.1,0.1c-1.2,0.6-1.5,1.6-1.2,2.4
		c1.2,3.6,6.7-0.1,8.5,0.6c9.1,3.6,24.3,41.3,24.3,41.3c-4.3-35.3,12.8-2.4,12.8-2.4c-10.3-26.8,3.6-48.6,3.6-48.6
		c1.8,6.1,3,6.3,3,8.5c0,5.4,0.8,5.7,0,7.3c-2.4,4.9-1.2,4.3-1.2,7.3c0,4.7,1.2,4.9,1.2,7.3s3,4.9,3.6,6.1c0.6,1.2-0.1,2.7,0,3.6
		c0.2,1.5,1.8,3.6,0.6,6.1s2.7,2.5,3,3.6c1.1,4.2-2.8,3.6-1.8,4.3c6.5,4,6.1,4.3,6.1,4.3c-9.7-0.6-7,4.7-5.5,6.1
		C233.2,221.5,232.3,221.7,232.3,221.7z"/>
	<path class="st9" d="M225,146.9c-1.7-3.8-3.1-7.7-4.8-11.4c-4.2-9-10.5-17.6-27.4-24.8c-4-1.7-8.5-3.3-13.7-4.8
		c0,0-4.9-13.4,42-31.6c0,0,1.8-17-6.1-18.2c0,0-7.5-1.2-39.8,14c-0.1,0.1-0.3,0.1-0.4,0.2c0.1-0.1,0.3-0.1,0.4-0.2l0.3-0.2
		c-2.5-6.7-7.3-11.5-7.3-11.5l4.7-34.7c-7.9-7.3-17.7-4.8-17.7-4.8c0,7.3-3.2,17-5.1,23.3c0.7-7.2,1.2-18.4-1.6-23.9
		c-4.3-8.5-18.2-1.7-18.2-1.7l0.1,12.8c0.4,5.2,0.7,8.2,0.9,9.8l-5.8-17.7c-10.3-3-18.8,6.2-18.8,6.2c8.6,21.9,6.2,37.1,6.2,37.1
		c-4.7,2.5-7.7,11.1-9.4,18.2c-0.6,2.5-0.9,4.7-1.2,6.5c-2.1,16.2-1.1,22.7-0.2,25.3c-6.8,0.9-14.1,3.7-21,10.2
		c-4.1,3.9-8.1,9.1-11.6,15.9c-1.4,2.7-2.8,5.7-4,8.9c-3.7,9.5-7.8,16.9-2.1,39.8c2,8.1,2.7,21,19.2,29.5c3.6,1.9,6.8,4.3,10.1,7.2
		c9.9,8.4,20.8,20,45.2,27.3c0.3,0.1,0.5,0.2,0.8,0.2c4.7,1.4,9.8,2.6,15.5,3.6c4,0.7,8.7,1.9,13.9,3.3c18.9,5.1,43.7,12.3,61.5,4.6
		C257.3,253.1,243.1,188.7,225,146.9z M154.7,82.8c-0.3-0.3-0.6-0.5-0.9-0.8c-0.5-0.1-1.1-0.6-1.9-1.2c-6-3.2-12.4-0.2-14.2,2
		c-2.5,3-3.9,5.9-4.6,8.5c-0.8,5.3,0.6,10,1.6,12.5c0.5,1.2,0.9,1.8,0.9,1.8s-2,2.4-3.8,5.5c-1.4,2.9-2.5,6-3,7.7
		c-0.1,0.4-0.1,0.7-0.1,1.1c0,0-0.1,0-0.2-0.1c-0.1,0.3-0.1,0.4-0.1,0.4c-0.5-0.4-1.1-0.9-1.8-1.4c-3.1-1.5-9.5-4-17.2-4.4
		c7.7,0.4,14.1,2.9,17.2,4.4c-5.1-3.6-14.9-9.3-14.9-9.3s-10.6,6.1-7.3-18.8c0.9-6.8,4.3-22.8,10.6-26.1c0,0,3.3-13.4-5.2-35.3
		c0,0,3.6-6.7,14.6-6.1l5.8,18.8c0,0,3,3,1.8-12.8V17.7c0,0,11.6-6.1,15.8,2.4c4.3,8.5,0,28.6,0,28.6s0.9,4.1,3-3.6
		c1.6-5.9,6.1-15.2,6.1-23.7c0,0,6.1-3.6,14,3.6l-5.5,35.3c0,0,6.1,3.6,8.5,10.3l-0.2,0.1c0,0,0,0,0,0L154.7,82.8z"/>
	<path class="st3" d="M225.6,214.4c-1.5-1.4-4.3-6.7,5.5-6.1c0,0,0.5-0.2-6.1-4.3c-1-0.6,2.9-0.1,1.8-4.3c-0.3-1.1-4.3-1.2-3-3.6
		s-0.4-4.6-0.6-6.1c-0.1-0.9,0.6-2.4,0-3.6c-0.6-1.2-3.6-3.6-3.6-6.1s-1.2-2.5-1.2-7.3c0-3-1.2-2.4,1.2-7.3c0.8-1.6,0-1.9,0-7.3
		c0-2.3-1.2-2.4-3-8.5c0,0-14,21.9-3.6,48.6c0,0-17-32.8-12.8,2.4c0,0-15.2-37.7-24.3-41.3c-1.8-0.7-7.3,3-8.5-0.6
		c-0.3-0.8,0-1.8,1.2-2.4c0.1,0,0.1-0.1,0.1-0.1c0,0-0.3,0.4,1.1,1.3c1.8,1.2,3.3-0.3,1.2-1.8c-1.4-1-6.1-3-6.1-3s-1.1,6.9,0,9.1
		c0.6,1.2,4.9,0.6,3,7.3c-1.4,5.3-0.6,10.3,9.7,20.1c0.7,0.7,0.3,0.8,2.4,3c1.3,1.5,3,1.8,4.3,6.7c0.4,1.7,3-0.6,3.6,6.1
		c0.2,2.3,3.6,1.2,4.9,7.9c0.3,1.5,2.4,0.6,3.6,4.9c0.5,1.6,2.4,0,3,6.1c0.2,2.1,3-0.6,5.5,6.7c0.5,1.4,2.4-1.2,5.5,1.8
		c1.7,1.7,6.7,0,9.1,2.4c1.5,1.5,0-7.3,9.7-4.9c2.2,0.6-4.9-9.1,3-8.5C232.3,221.7,233.2,221.5,225.6,214.4z"/>
	<g>
		<path class="st10" d="M135.6,105.6c0,0-0.2-0.2-0.4-0.6c-1.1-1.7-3.9-7-2.1-13.7c0.7-2.7,2.1-5.5,4.6-8.5c1.8-2.2,8.2-5.1,14.2-2
			c0.6,0.3,1.2,0.7,1.9,1.2c0.3,0.2,0.6,0.5,0.9,0.8l18.9-12l0.2-0.1c-2.4-6.7-8.5-10.3-8.5-10.3l5.5-35.3c-7.9-7.3-14-3.6-14-3.6
			c0,8.5-4.5,17.8-6.1,23.7c-2.1,7.7-3,3.6-3,3.6s4.3-20.1,0-28.6c-4.3-8.5-15.8-2.4-15.8-2.4v11.6c1.2,15.8-1.8,12.8-1.8,12.8
			l-5.8-18.8c-10.9-0.6-14.6,6.1-14.6,6.1c8.5,21.9,5.2,35.3,5.2,35.3c-6.4,3.3-9.7,19.3-10.6,26.1c-3.3,24.9,7.3,18.8,7.3,18.8
			s9.8,5.6,14.9,9.3c0.7,0.5,1.3,1,1.8,1.4c0,0,0-0.1,0.1-0.4c0.1-0.2,0.2-0.6,0.3-1c0.5-1.7,1.6-4.8,3-7.7
			C132.8,108.9,134.1,106.8,135.6,105.6z"/>
		<path class="st10" d="M122.2,126.3c0,0-6-4-14-4.3c-23.1-0.6-35.9,27.4-35.9,27.4c1.2,3-3,9.1-3,9.1c2.4,4.3-1.8,9.1-1.8,9.1
			c1.8,3.6,0,6.7,0,6.7c2.4,5.5,0,7.3,0,7.3c2.4,0.6,4.9,7.9,4.9,7.9c3,2.4,4.3,8.5,4.3,8.5c3.6,0,10.3,9.7,10.3,9.7
			c6.1,0.6,18.8-4.9,18.8-4.9c31-13.4,20.1-52.6,20.1-55.3C125.9,133,127.1,129.9,122.2,126.3z"/>
		<path class="st10" d="M214.3,58.5C194.9,57.9,155,86.1,155,86.1c-6.7-6.7-11.8-3.9-14.3-2.1c-9,6.3-2.7,21-2.7,21
			c-4.9,7.9-12.2,36.5-6.1,45c6.1,8.5,8.4-1.7,10.3,0c0.7,0.6,1.3,1.1,1.8,1.7c1.1-3.1,4.5,4.6,4.6,4.7c0.7,0.3,1-0.5,1.2-3
			c1-14,5.2-5.8,5.2-5.8c-3,9.7,0,10.3,2.4,10.9c2.4,0.6,3.7-3.3,3.6-4.9c-1.8-35.9,6.6-42.6,15.2-53.5
			C192.1,80,207,75.5,216.8,73.1C220.1,72.2,218.6,58.6,214.3,58.5z"/>
		<path class="st10" d="M175.1,107.4c-12.2,15.2-10,37.4-10,37.4c28.9,22.8,53.9,7.1,51.1-5.5C209.8,111.1,175.1,107.4,175.1,107.4z
			"/>
	</g>
	<path class="st3" d="M185.8,241.5c0,0-2.4-2.4-3.6-4.9s-2.4-1.8-3-3.6c-0.6-1.8-2.1-5.2-3.6-7.9c-2.7-4.6-0.3-3-1.8-9.1
		c-0.4-1.6-1.8-1.8-1.2-6.7c0.6-4.9-1.8-6.7-1.8-6.7s-3.5-6-4.9-10.9c-0.2-0.9,0.6-2.4-1.8-3c-2.4-0.6-3-19.5-3-26.1
		c0,0-9.1,6.1-12.2-6.1c0,0,0,0,0,0c0-0.1-3.5-7.8-4.6-4.7c-0.2,0.6-0.3,1.5-0.3,2.9c0,0-2.4,11.6-12.8,1.8c0,0,1.8,11.6-2.4,25.5
		c0,0-2.4,18.8,6.1,27.4l10.9,14.6c0,0-40.1-32.8-16.4-1.8l-20.7-12.2l-9.7,4.9l5.5,5.5c0,0,6.1-2.4,7.3,0.6v3c0,0,3.6-5.5,9.7,0
		c0,0-1.2,1.8,0,2.4c1.2,0.6,3.6-2.4,5.5,1.2c0,0,1.2,2.4,3-1.2c1.8-3.6,9.1,3.6,9.1,3.6s1.2,0.6,4.9,0c3.6-0.6,3,2.4,3,2.4
		s3.6,0.6,3.6-1.2s3.6-1.8,6.1,3c2.4,4.9,2.4-1.2,2.4-1.2s8.5,0.6,9.7,6.7c0,0,3.6,0,2.4,1.8s3.6,0,3.6,0s1.8,3,2.4,4.9
		c0.6,1.8,3.6,0,3.6,0s0.6,0,4.9,1.8c4.3,1.8,8.5,1.2,4.9-2.4C187,242.1,185.8,241.5,185.8,241.5z"/>
</g>
</svg>
