<?xml version="1.0" encoding="utf-8"?>
<!-- Generator: Adobe Illustrator 22.0.1, SVG Export Plug-In . SVG Version: 6.00 Build 0)  -->
<!DOCTYPE svg PUBLIC "-//W3C//DTD SVG 1.1//EN" "http://www.w3.org/Graphics/SVG/1.1/DTD/svg11.dtd">
<svg version="1.1" id="Layer_1" xmlns="http://www.w3.org/2000/svg" xmlns:xlink="http://www.w3.org/1999/xlink" x="0px" y="0px"
	 viewBox="0 0 300 300" style="enable-background:new 0 0 300 300;" xml:space="preserve">
<style type="text/css">
	.st0{fill:#65B9B9;}
	.st1{fill:#99002B;}
	.st2{fill:#E894A7;}
	.st3{fill:#FDFDFD;}
	.st4{fill:#D7ECEC;}
	.st5{fill:#E5C1CB;}
	.st6{fill:#8BCACA;}
	.st7{fill:#E6C1CB;}
	.st8{fill:#B2405F;}
	.st9{fill:#CB8094;}
	.st10{fill:#BB5974;}
	.st11{fill:#A64F6A;}

	g:hover .extra-style {
		fill:blue;
		<!-- transition: all 0.5s; -->
		
	}
	
	g {
  margin: 5em;
  animation: .8s infinite beatHeart;
}

@keyframes beatHeart {


  0% {
    transform: scale(0.9);
    transition: all 1s;
  }
  25% {
    transform: scale(1);
    transition: all 1s;
  }
  40% {
    transform: scale(0.9);
    transition: all 1s;
  }
  60% {
    transform: scale(1);
    transition: all 1s;
  }
  100% {
    transform: scale(0.9);
    transition: all 1s;
  }

}
</style>
<g>
	<g>
		<path class="st0" d="M101.8,110.9c-0.2-7.1-0.4-14.1-0.3-21.2c0-2.3,0.5-4.6,0.4-6.9c-0.4-6.3-0.9-12.5-1.3-18.8
			c-0.1-1-0.4-1.3-1.3-1.4c-2.1-0.2-4.3-0.4-6.4-0.5c-1.8-0.2-3.5,0-5.3-0.1c-2.4,0-4.8,0.1-7.1,0.7c-2.9,0.8-5.6,1.8-7.7,4.1
			c-0.5,0.5-0.8,1.1-0.7,1.8c0.3,3.1,0.6,6.2,1,9.3c0.2,1.5,0.1,1.7-1.4,2.1c-3.2,0.9-6.3,1.9-9.5,2.8c-0.9,0.3-1.5,0.8-1.8,1.7
			c-0.5,1.3-0.4,2.7-0.8,4c0,0.4,0,0.8,0,1.2c0.2,0.9,0.2,1.8,0,2.6c0,0.2,0,0.5,0,0.7c0.4,0.3,0.3,0.8,0.4,1.2
			c0.3,1.3,0.9,2.6,1.9,3.6c1.3,1.3,2.6,2.3,4.7,1.8c3.1-0.7,6.3-1,9.5-1.5c0.7-0.1,1.3-0.2,1.5,0.8c0.8,5.9,1.7,11.9,1.9,17.8
			c0.1,2.4,0.2,4.8-0.2,7.5c1.5-1.5,2.9-2.7,4.5-3.7c4.8-3,10.1-4.8,15.5-6.2C102,113.8,101.9,113.8,101.8,110.9z"/>
		<path class="st0" d="M137.3,255c0,0-43.7-28.9-46.7-28.2c0,0,10.2,31.5,6.5,53.4c0,0,20.1,16.3,42.7,0L137.3,255z"/>
	</g>
	<g>
		<path class="st1" d="M55.1,120.4c3.8,1.3,11.3,3.8,11.3,3.8l-13.2,5.6c0,0-4.4,5.6,3.1,11.9c1.4,1.1,12.9-4,12.9-4
			S79,124,80.8,122.2v-9.3c0,0-20.7-2.5-23.2-3.8S51.4,119.1,55.1,120.4z"/>
		<path class="st1" d="M245.5,121.4c0-1.4-0.3-2.9-0.5-4.3c-0.1-0.9-0.6-1.1-1.3-1.2c-1.3-0.1-2.5-0.2-3.8-0.3
			c-8.1-0.1-16.2,0.8-24.2,1.8c-1.3,0.2-2.6,0.5-4.2,0.4c2-1.5,4-2.2,6.1-2.9c8.2-2.8,16.7-4.7,25.1-6.7c0.9-0.2,1.4-0.6,1.7-1.4
			c0.7-1.7,0.7-3.4,0-5c-2.5-5.9-4.1-6.3-9-5.1c-10.7,2.8-21.3,5.7-31.9,8.7c-3,0.8-5.8,1.9-8.9,2.3c-0.2,0.1-0.3,0.2-0.2,0.4
			c1.5,0.7,2.5,2,4,2.6c1.7,0.7,2,2,1.9,3.6c-0.3,2.5,0.5,4.4,2.4,6c4.4,3.8,9.3,6.9,14.4,9.9c1.8,1.1,3.7,1.9,5.4,3.1
			c0.2,0,0.5,0,0.7,0c0.4-0.3,0.9-0.1,1.3-0.1c0.4,0,0.8,0,1.2,0c0.5,0,1,0,1.4,0c2.3,0,4.6-0.1,6.9-0.2c2.3-0.1,4.6,0.1,6.8-0.3
			c0.8-0.1,1.5-0.5,2.1-1c2.1-2.1,2.7-4.7,2.7-7.6C245.6,123.3,245.7,122.4,245.5,121.4z"/>
		<path class="st1" d="M137.3,255.2l2.5,25.1c0,0,20.7,6.3,30.1-4.4l-1.9-18.8L137.3,255.2z"/>
	</g>
	<path class="st2" d="M227.8,145.1c-6.9-15.8-9.2-31.1-47.4-42.3c0,0-5-13.8,43.3-32.6c0,0,1.9-17.6-6.3-18.8c0,0-7.8-1.2-41.1,14.4
		l0.3-0.2c-2.5-6.9-7.6-11.9-7.6-11.9l4.9-35.8c-8.2-7.5-18.2-4.9-18.2-4.9c0,7.5-3.3,17.5-5.3,24.1c0.7-7.4,1.3-18.9-1.6-24.7
		c-4.4-8.8-18.8-1.8-18.8-1.8l0.1,13.2c0.4,5.4,0.7,8.4,0.9,10.1l-6-18.2c-10.7-3.1-19.4,6.4-19.4,6.4c8.9,22.5,6.4,38.2,6.4,38.2
		c-6.6,3.5-10,18.4-10.9,25.5c-2.2,16.8-1.2,23.5-0.2,26.1c-12.9,1.6-27.6,10.1-37.9,36.2c-3.8,9.8-8,17.4-2.2,41.1
		c2,8.3,2.8,21.6,19.8,30.4c16.9,8.8,26,31,74,39.5c19.3,3.4,54.3,18.3,77.8,8.2C261.1,254.7,246.5,188.2,227.8,145.1z"/>
</g>
<path class="st3" d="M227,133.2c4.5-0.2,9-0.4,13.5-0.6c1,0,1.7-0.4,2.3-1.1c1.9-2,2.5-4.6,2.7-7.2c0.1-0.1,0.1-0.1,0.2,0
	c0,2.8,0,5.6,0,8.4c0,0.6-0.1,0.7-0.7,0.7c-6,0-12,0-18,0C227,133.4,226.9,133.3,227,133.2C227,133.3,227,133.2,227,133.2z"/>
<path class="st4" d="M87.3,62.1c0-0.1,0-0.1,0-0.2c1.8,0,3.7,0,5.5,0c0,0.1,0,0.1,0,0.2C91,62.1,89.2,62.1,87.3,62.1z"/>
<path class="st5" d="M245.8,124.3l-0.1,0l-0.1,0c0-1,0-1.9,0-2.9c0.1,0,0.1,0,0.2,0C245.8,122.4,245.8,123.4,245.8,124.3z"/>
<path class="st6" d="M59.5,89.8c0.4,0.9,0.4,1.8,0,2.6C59.5,91.5,59.5,90.6,59.5,89.8z"/>
<path class="st7" d="M227,133.2c0,0.1,0,0.1,0,0.2c-0.5,0-1,0-1.4,0c-0.1-0.1-0.1-0.1-0.1-0.1c0,0,0.1-0.1,0.1-0.1
	C226.1,133.2,226.6,133.2,227,133.2z"/>
<path class="st8" d="M223.2,133.4c0.3-0.4,0.8-0.2,1.2-0.2c0.1,0.1,0.1,0.1,0.1,0.1c0,0-0.1,0.1-0.1,0.1
	C224,133.4,223.6,133.4,223.2,133.4z"/>
<path class="st9" d="M224.4,133.4c0-0.1,0-0.1,0-0.2c0.4,0,0.8,0,1.2,0c0,0.1,0,0.1,0,0.2C225.2,133.4,224.8,133.4,224.4,133.4z"/>
<path class="st10" d="M194.7,107.8c-0.1,0.1-0.1,0.3-0.2,0.4c-0.2,0-0.6-0.1-0.5-0.3C194,107.6,194.4,107.8,194.7,107.8z"/>
<g>
	<path class="st11" d="M135.1,102.5c0,0-8.5-11,2.2-23.5c2.2-2.6,10.7-6.3,17.6,0l19.8-12.5c-2.5-6.9-8.8-10.7-8.8-10.7l5.6-36.4
		c-8.2-7.5-14.4-3.8-14.4-3.8c0,8.8-4.6,18.4-6.3,24.5c-2.2,8-3.1,3.8-3.1,3.8s4.4-20.7,0-29.5c-4.4-8.8-16.3-2.5-16.3-2.5v11.9
		c1.3,16.3-1.9,13.2-1.9,13.2l-6-19.4c-11.3-0.6-15.1,6.3-15.1,6.3c8.8,22.6,5.3,36.4,5.3,36.4c-6.6,3.4-10,19.9-11,27
		c-3.4,25.7,7.5,19.4,7.5,19.4s13.2,7.5,17.2,11C127.6,117.5,130.7,106.2,135.1,102.5z"/>
	<path class="st11" d="M121.3,123.8c0,0-6.2-4.2-14.4-4.4c-23.8-0.6-37,28.2-37,28.2c1.3,3.1-3.1,9.4-3.1,9.4
		c2.5,4.4-1.9,9.4-1.9,9.4c1.9,3.8,0,6.9,0,6.9c2.5,5.6,0,7.5,0,7.5c2.5,0.6,5,8.2,5,8.2c3.1,2.5,4.4,8.8,4.4,8.8
		c3.8,0,10.7,10,10.7,10c6.3,0.6,19.4-5,19.4-5c32-13.8,20.7-54.3,20.7-57.1C125.1,130.7,126.3,127.6,121.3,123.8z"/>
	<path class="st11" d="M216.3,53.9c-20.1-0.6-61.2,28.5-61.2,28.5c-6.9-6.9-12.2-4-14.7-2.2c-9.3,6.5-2.8,21.6-2.8,21.6
		c-5,8.2-12.5,37.6-6.3,46.4c6.3,8.8,8.6-1.7,10.7,0c5.8,4.9,7.4,10.2,7.8,3.4c1-14.4,5.3-6,5.3-6c-3.1,10,0,10.7,2.5,11.3
		s3.8-3.5,3.8-5c-1.9-37,6.8-43.9,15.7-55.2c16.3-20.7,31.7-25.4,41.7-27.9C222.3,68.1,220.7,54,216.3,53.9z"/>
	<path class="st11" d="M175.9,104.4c-12.5,15.7-10.3,38.6-10.3,38.6c29.8,23.5,55.6,7.3,52.7-5.6
		C211.6,108.1,175.9,104.4,175.9,104.4z"/>
</g>
<g>
	<path class="st1" d="M227.9,214.8c-1.5-1.4-4.4-6.9,5.6-6.3c0,0,0.5-0.2-6.3-4.4c-1-0.6,3-0.1,1.9-4.4c-0.3-1.2-4.4-1.3-3.1-3.8
		s-0.5-4.7-0.6-6.3c-0.1-0.9,0.6-2.5,0-3.8s-3.8-3.8-3.8-6.3s-1.3-2.6-1.3-7.5c0-3.1-1.3-2.5,1.3-7.5c0.8-1.7,0-1.9,0-7.5
		c0-2.3-1.3-2.5-3.1-8.8c0,0-14.4,22.6-3.8,50.2c0,0-17.6-33.9-13.2,2.5c0,0-15.7-38.9-25.1-42.7c-1.9-0.8-7.5,3.1-8.8-0.6
		c-0.3-0.9,0-1.9,1.3-2.5c0.1,0,0.1-0.1,0.1-0.1c0,0-0.3,0.4,1.1,1.3c1.9,1.3,3.4-0.3,1.3-1.9c-1.4-1-6.3-3.1-6.3-3.1
		s-1.1,7.2,0,9.4c0.6,1.3,5,0.6,3.1,7.5c-1.5,5.4-0.6,10.7,10,20.7c0.7,0.7,0.3,0.8,2.5,3.1c1.4,1.5,3.1,1.9,4.4,6.9
		c0.4,1.8,3.1-0.6,3.8,6.3c0.2,2.4,3.8,1.3,5,8.2c0.3,1.5,2.5,0.6,3.8,5c0.5,1.7,2.5,0,3.1,6.3c0.2,2.2,3.1-0.6,5.6,6.9
		c0.5,1.4,2.5-1.3,5.6,1.9c1.7,1.7,6.9,0,9.4,2.5c1.6,1.6,0-7.5,10-5c2.3,0.6-5-9.4,3.1-8.8C234.8,222.3,235.8,222,227.9,214.8z"/>
	<path class="st1" d="M186.8,242.7c0,0-2.5-2.5-3.8-5s-2.5-1.9-3.1-3.8s-2.1-5.4-3.8-8.2c-2.8-4.7-0.3-3.1-1.9-9.4
		c-0.4-1.7-1.9-1.9-1.3-6.9c0.6-5-1.9-6.9-1.9-6.9s-3.6-6.2-5-11.3c-0.2-0.9,0.6-2.5-1.9-3.1s-3.1-20.1-3.1-27c0,0-9.4,6.3-12.5-6.3
		c0,0-5-11.3-5-1.9c0,0-2.5,11.9-13.2,1.9c0,0,1.9,11.9-2.5,26.3c0,0-2.5,19.4,6.3,28.2l11.3,15.1c0,0-41.4-33.9-16.9-1.9
		l-21.3-12.5l-10,5l5.6,5.6c0,0,6.3-2.5,7.5,0.6v3.1c0,0,3.8-5.6,10,0c0,0-1.3,1.9,0,2.5s3.8-2.5,5.6,1.3c0,0,1.3,2.5,3.1-1.3
		s9.4,3.8,9.4,3.8s1.3,0.6,5,0s3.1,2.5,3.1,2.5s3.8,0.6,3.8-1.3s3.8-1.9,6.3,3.1s2.5-1.3,2.5-1.3s8.8,0.6,10,6.9c0,0,3.8,0,2.5,1.9
		s3.8,0,3.8,0s1.9,3.1,2.5,5s3.8,0,3.8,0s0.6,0,5,1.9c4.4,1.9,8.8,1.3,5-2.5C188.1,243.3,186.8,242.7,186.8,242.7z"/>
</g>
</svg>
