<?xml version="1.0" encoding="utf-8"?>
<!-- Generator: Adobe Illustrator 22.0.1, SVG Export Plug-In . SVG Version: 6.00 Build 0)  -->
<!DOCTYPE svg PUBLIC "-//W3C//DTD SVG 1.1//EN" "http://www.w3.org/Graphics/SVG/1.1/DTD/svg11.dtd">
<svg version="1.1" id="Layer_1" xmlns="http://www.w3.org/2000/svg" xmlns:xlink="http://www.w3.org/1999/xlink" x="0px" y="0px"
	 viewBox="0 0 300 300" style="enable-background:new 0 0 300 300;" xml:space="preserve">
<style type="text/css">
	.st0{fill:#D25F79;}
	.st1{fill:#E29E5A;}
	.st2{fill:#A64F6A;}
	.st3{fill:#65B9B9;}
	.st4{fill:#99002B;}
	.st5{fill:#E894A7;}
	.st6{fill:#D7ECEC;}
	.st7{fill:#8BCACA;}
	.st8{fill:#E6C1CB;}
	.st9{fill:#B2405F;}
	.st10{fill:#BB5974;}
	.st11{fill:none;stroke:#CCCCCC;stroke-width:10.4692;stroke-miterlimit:10;}
	.st12{fill:#D39556;}
	.st13{fill:#CF856B;}
	.st14{fill:#F0BF5B;}
	.st15{fill:#CF8734;}
	.st16{fill:#A15368;}
	.st17{fill:#C3C878;}

.intestine {
	-webkit-animation: lungs-veinsstem 1.7s infinite; 
	-webkit-transform-origin: 50% 50%;
	transition-delay: 1s;
}

@keyframes lungs-veinsstem {
  0%, 100%   {
  	opacity: 0;

  	
  }
  50% {
  	opacity: 2;
  
  }
}

.st0:hover {
        fill:blue;

}


</style>
<g class="pink">
<path class="st0" d="M236.8,126.6c-2.3-9.2,12.7-27.6-22.8-35.9c0,0-15,20.3-70.6,15.7c0,0-17.6,3.5-26.5-8.1c0,0-20.7,1.2-30.3,6.9
	c0,0-13-5.8-23.4,7.7c0,0-19.2,3.8-18.8,41.4c0.1,5-3.5,16.9-2.7,21.5c0.7,3.9,11.5,19.9,11.5,19.9s5-11.9,9.6-13.4
	c0,0,1-5.6,2.9-7.6c1.9-1.9-15.3-14.9,5.7-40.2c0,0,8.2,5.7,14.4-0.5c6.1-6.1,13.8-3.1,22.2,4.5c0,0,9.6,4.7,18.5,1.7
	c0,0,14.3,3.1,20.1-1.9c0,0,18,6,26.9-0.5c0,0,14.2-0.2,21.1-6c0,0,11.8-3.7,14.8,1.7c0,0,17.7-1.9,20.8,19c0,0,1.5,6.5,0,9.2
	c-1.5,2.7,3.1,1.5-3.5,10c0,0,8.8,19.2-3.1,23c0,0,2.7,13.8-7.7,19.6c0,0,2.3,11.5-15.7,12.3c0,0-7.7,6.1-15,8.4
	c0,0-24.9-3.1-22.6,1.9c0,0-12.6-0.6-18.8,4.2l-20.9-18.6c0,0-5.8,18.4,2.3,34.1c0,0,3.5,9.6,3.1,23.4c0,0,8.8,15.7,16.1,1.9
	c0,0,3.5-14.2,4.6-18c0,0,2.6-9.2,5.2-13.2c0.1,0,0.2,0,0.4-0.1c13.8-3.1,14.2-5,14.2-5s26.5,1.5,37.2-8.8c0,0,18,2.7,20.3-18.8
	c0,0,10.7-7.7,4.6-21.1c0,0,8.4-6.1,3.8-25.3c0,0,2.3-3.8,1.5-14.2c-0.8-10.4,0.8-10.4,0-10.4C235.6,147.3,239.1,135.8,236.8,126.6z
	"/>
</g>
<path class="st1" d="M222.4,169c0,0,15.4-10.3,2.7-30.5c0,0-6.9-8.7-15.8-6.4c0,0-0.8-6.5-15-0.4c0,0-1.5,5-21.5,3.8
	c0,0-2.9,1.6-9.1,2.2c1.3-6.7,1.5-17.5-8-24.2c-16.2-11.3-24.2,1.5-30.1,3c-6.4,1.7-21.2-10-12.7-23.3c0,0,1.8,5.2,3.7,5
	c0,0,6.6,11,24.2,9.3c2.4-0.2,1.9-2.2,9.5,0.2c7.5,2.4,46.9,4.3,61.9-15.2c16-20.7,7.2-57.3-24.6-52.9c-4.4,0.6-8.3,1-14.3,11.8
	c-3.1-0.5-20.7-5.1-19.2-41.6l-11.1-3.8c0,0-6.2,47,25.2,56.1c-0.6,1.4-1.2,2.8-1.8,4.4c-2.5,6.2-13.8,11.9-24,11.3
	c-3.5-0.2-15-6.5-22.5,2c0,0-4-1.9-6.1-1.4c-10.2,2.2-23.3,24.8-8.1,42.8c4,4.7,13.4,11.2,23.5,6.5c3.5-1.6,6.9-7.7,13.3-6.5
	c6.1,1.1,12.1,2.8,9.2,16c-1.7-0.2-3.6-0.5-5.5-0.8c0,0-5,6.1-19.9,0.8c0,0-12.8,5.2-26.9-6.8c0,0-8.7-4.3-14.1,1.8
	c-5.4,6.1-14.2,0.8-14.2,0.8s-19.2,17.6-7.4,38.7c0,0,0.9,6.1-2.6,10.4c0,0-16.1,8.8-2.3,28c12.5,17.3,31.3,5.2,35.6-0.4
	c-2.2,6-6.3,24.2,12.7,25.7c0,0,10.7,1.9,14.2-8.8c0,0,14.2,5.4,17.3-7.3c0,0,7.3,3.1,21.1,0.8c0,0,17.3,5.4,21.9,6.5
	s16.9,2.3,20.7-10.4c0,0,27.2,3.1,16.1-21.5C218.6,195.1,231.6,186.6,222.4,169z"/>
<path class="st2" d="M230.1,152.5c0.6,10.9-7.7,16.5-7.7,16.5c9.2,17.6-3.8,26.1-3.8,26.1c11.1,24.5-16.1,21.5-16.1,21.5
	c-3.8,12.7-16.1,11.5-20.7,10.4s-21.9-6.5-21.9-6.5c-13.7,2.3-21-0.7-21.1-0.8l0,0c-2,8.4-8.9,8.8-13.4,8.2l0,0c0,0-4.3,7.1,4.2,24
	c0,0,3.1,13,1.9,27.6c0,0,6.5,5.8,12.3,0c0,0-1.9-8.8,2.3-17.6c0,0,2.3-8.2,2.3-9.9c0,0-14.4,1.4-14.3-4.9c0,0-5.3-6.7,8.1-4
	c0,0,13.4-8.4,21.5-4.6c4.7,2.2-0.7,2.8,20.7-1.2c4.6-0.8,7.7-3.1,15.7-10.4c0,0,17.1,1,18-11.9c0,0,7.3-3.8,7.3-19.9
	c0,0,11.5-6.1,3.1-23C228.5,172.1,238.2,157.2,230.1,152.5z"/>
<g>
	<path class="st16" d="M169.1,61.1c0,0,1.3-4.3,3.5-7.3c0,0-22.7-2.3-20.2-44.4l-7.1-2.5C145.3,6.9,140.2,51.5,169.1,61.1z"/>
	<path class="st16" d="M214,61.8c-2.3-11.2-19.3-25-32.6-13.2c-3.3,2.9-7.4,9.2-9.7,15.8c-2.2,6.5-15.6,20.5-29.4,17.2
		c-5.2-1.3-16.2-6.8-22.4,1.7c-3.2,4.5-5.2,17.1,8.3,19.9c3.8,0.8,5.7,0.6,15.6-1.3c8.2-1.6,13,5.7,40.8-0.5
		C208.5,96.1,216.3,73,214,61.8z"/>
</g>
<path class="st17" d="M143.7,90.9c0,0,1.2-11-14.8-10.5c-4.5,0.1-11.9,4.8-8.1,15.3c1,2.8,6.9,5.8,15.4,5.3c7.5-0.5,6.4-6.7,6.6-7.3
	c0.2-0.6,3.2-2.3,2.9,2.4s4.6,4.9,6.6,5c1.3,0.1,5.4,0.5,5.4,0.5s0.5-11.4,16.7-12.8s24.9-21.1,19-28.7c-0.6-0.7,0-2.4,2.4-2.9
	c0,0-4.7-2.8,0.3-5c0,0-4.3-2.3-0.5-4.4c0,0-12.5-4.6-20.4,14.9c-3,7.4-8.7,18.8-24.5,21.2c-2.2,0.3-3.7,2.2-5,7.1
	C145.6,91.4,144.5,93,143.7,90.9z"/>
<path class="st0" d="M199.1,45.4c0,0-8.7,3.6-3,6.6c0,0-4.8,2.1-0.3,5c0,0-4.6,0.5-1.5,4.4c2.6,3.3,0.3,24.7-20.6,27.3
	c0,0-14.9,0.6-16.9,14.3c0,0,4.9,1.7,12.1,0.6c6.1-0.9,34.3-0.5,43.2-26.2C212.1,77.5,222.6,52.9,199.1,45.4z"/>
</svg>
