<?xml version="1.0" encoding="utf-8"?>
<!-- Generator: Adobe Illustrator 22.0.1, SVG Export Plug-In . SVG Version: 6.00 Build 0)  -->
<!DOCTYPE svg PUBLIC "-//W3C//DTD SVG 1.1//EN" "http://www.w3.org/Graphics/SVG/1.1/DTD/svg11.dtd">
<svg version="1.1" id="Layer_1" xmlns="http://www.w3.org/2000/svg" xmlns:xlink="http://www.w3.org/1999/xlink" x="100px" y="100px"
	 viewBox="0 0 300 300" style="enable-background:new 0 0 300 300;" xml:space="preserve">
<style type="text/css">
	.st0{fill:#65B9B9;}
	.st1{fill:#99002B;}
	.st2{fill:#E894A7;}
	.st3{fill:#D7ECEC;}
	.st4{fill:#8BCACA;}
	.st5{fill:#E6C1CB;}
	.st6{fill:#B2405F;}
	.st7{fill:#BB5974;}
	.st8{fill:#A64F6A;}
	.st9{fill:#D25F79;}


svg {
  width:300px;
}


.veinsstem{
	-webkit-animation: lungs-veinsstem 1.6s infinite; 
	
	-webkit-transform-origin: 50% 50%;
	
}


.branch1 {
	-webkit-animation: lungs-veinsstem 1.6s infinite; 
	-webkit-transform-origin: 50% 50%;
	
}

.branch2 {
	-webkit-animation: lungs-veinsstem 1.6s infinite; 
	-webkit-transform-origin: 50% 50%;
	transition-delay: 1s;
}

@keyframes lungs-veinsstem {
  0%, 100%   {
  	opacity: 0.4;

  	
  }
  50% {
  	opacity: 2;
  
  }
}

.lungs-veinsstem {
		fill:blue;
		<!-- transition: all 0.5s; -->
		
}

.lungs:hover {
	fill:blue;
}

<!-- .lungs {
  margin: 5em;
  animation: .9s infinite beatHeart;
}

@keyframes beatHeart {


  0% {
    transform: scale(1);
    transition-duration: 20s;
  }
	13% {
    transform: scale(0.9);
    transition-duration: 20s;
  }

  25% {
    transform: scale(0.9);
    transition-duration: 20s;
  }
  50% {
    transform: scale(0.9);
    transition-duration: 20s;
  }
	63% {
    transform: scale(0.9);
    transition-duration: 20s;
  }

  75% {
    transform: scale(0.9);
    transition-duration: 20s;
  }
  100% {
    transform: scale(1);
    transition-duration: 20s;
  }

} -->

.lung {
  animation-name: stretch;
  animation-duration: 1.5s; 
  animation-timing-function: ease-out; 
  <!-- animation-delay: 0.9s; -->
  animation-direction: alternate;
  animation-iteration-count: infinite;
  animation-play-state: normal;
  vertical-align: middle;
  text-align: center;
}

@keyframes stretch {
  

  from {
    transform: scale(0.9);
  }
  to {
    transform: scale(0.94);
  }


</style>


<g class="lung">
	<path class="st9" d="M154.2,159.3c-3.1-17.3-17.1-42.1-14.5-57.2c1.7-9.8,9.1-23.4-23.9-31.9c-33-8.5-60.9,37-68.9,58.1
		c-2.5,6.7-6.3,26.2-6.3,27.9c0,1.7-3.8,10.3-4.6,12c-3.4,7.9-2,15.4-2.8,20.5c-2.8,16.5-10.7,49.1,4.6,66.6
		c4.8,5.5,15.7,14.5,29,4.6c9.5-7.1,18.5-7.1,46.7-7.4c20-0.2,47-6.5,42.1-67.8C155.4,181.1,155.2,164.9,154.2,159.3z"/>
 
  
	<path class="st9" d="M277.2,216.7c-1.1-7.8,3.7,2.5-0.4-37.1c-4.1-39.7-11-69.8-55.1-99.2c-37.1-24.7-45,13.4-44,26.2
		c1.6,21.3,7.4,44.5-3.3,85.5c-10.7,41,36.9,29,39.3,43.4c1,5.9,1.5,7.7,0.9,10.2c-2.5,11.4,19.6,14.3,19.6,14.3
		C293.1,267.4,278.7,227.5,277.2,216.7z"/>
</g>

<g class="veinsstem">
<path class="st0" d="M153.8,16.1c0,0-9-9.2-8.1,9s2.2,18.3,3.6,24.3c0.6,2.5,0.5,7.7,0.5,10.2c0.1,5.7,1.2,22.8,1.2,22.8l-0.5,34.8
	c0,0-3.9,12.8-13.7,22.4s-16,32.2-15.5,42.4c0.5,10.2,11.4,21.6,11.9,31.9c0.5,10.2,0.1,13.1,0.1,13.1s9.9-7.9,1.7-21.2
	c-14.1-23.1-10.6-28,5.1-54.4c0,0,15.1-17.3,19.2-25c0,0,7.8,13.6,24.5,32.4c0,0,13.6,19.3,5.4,37.9l-6.3,10.6
	c0,0,5.6-1.4,14.5-16.7s-11.6-46.7-29.4-71.5c-6-8.4-3.5-1.5,2.4-41.2s7.7-60.3,7.7-60.3s-3.8-6-11,8c-0.7,1.3,1.4,7.5-5.7-0.3
	C159.6,23.1,153.6,22.4,153.8,16.1z"/>
	</g>
	<g class="branch1">
<path class="st0" d="M135.9,140.5c0,0-29-17.7-71.8-3.4c0,0,0,2.8,15.4-1.1c2.1-0.5,8-1.7,8.5,0s-12,21.1-38.7,13.7
	c0,0-1.7,4,21.1,3.4c7.3-0.2,11.4-1.7,23.9-16.5c0,0,22.7,0.5,36.3,12.5L135.9,140.5z"/>
<path class="st0" d="M128.6,160c0,0-40.6,15-58.8,1.9c0,0-5.1-4.6-8.5-6.3c0,0-1.7,0.6,5.1,5.7c0,0-6.8-1.1-8.5,0
	c0,0-2.8,1.7,7.4,1.7c3.8,0,7,4.2,14.2,5.7c4.3,0.9,10.3,4.6,17.1,3.4c0,0-17.1,10.3-21.6,10.3c-4.6,0-22.2-12-27.9-10.3
	c0,0,9.7,1.7,13.1,5.7s-13.7,2.3-15.4,2.3c-1.7,0,2.8,4,18.8,0.6c1.8-0.4,6.8,1.7,6.8,2.8s-23.9,1.7-25.6,1.1
	c-1.7-0.6-0.6,1.1,14.2,2.3c0,0-12,4.6-14.8,4c-2.8-0.6,1.6,4.8,22.8-3.4c10.3-4,13.7-1.1,34.7-13.7c0,0-8.5,18.2-21.6,20.5
	c0,0,2.3,5.1,16.5-6.8c6.6-5.6,14.2-23.6,27.9-20.6L128.6,160z"/>
<path class="st0" d="M184.8,149.8c0,0,6.8-3.4,12.5-4.6c0,0,7.4-9.1,6.3-19.4s-2.3-10.8-2.3-10.8s-14.2-7.4-10.8-19.4
	c0,0,1.1-1.1,0.6,2.8c-0.6,4,6.8,13.7,11.4,13.1c0,0-1.7-14.2,6.8-19.9c0,0,1.7,0.6-2.3,5.1s-2.3,17.1-2.3,17.1s2.8,11.4,2.8,13.7
	c0,2.3-4,17.7-4,17.7s4.6-1.7,7.4-1.7s4-10.3,15.9-18.2c0,0,2.8,0-4,5.1c-3,2.3-4,10.3-7.4,13.1c0,0,19.9,2.3,26.2,8.5
	c0,0,1.7,3.4-2.8,1.7s-14.2-6.3-26.8-4c0,0-18.8,4.6-22.2,9.1L184.8,149.8z"/>
	</g>
<g class="branch2">
<path class="st0" d="M120.3,135.5c0,0-7-11.6-7.4-15.9c-0.4-3.9,2.7-9.8,3.2-12.1c0.6-2.3,22-14,13.3-22.6c0,0,1.7,9.1-11.9,17.1
	c0,0,4-13.6-4.5-24.5c0,0,9.1,20.5,0,24.5c0,0-3.8-10.5-4-17.6c0,0-2.8,9.2,1.7,22.2c0.7,2,1.1,7.4-1.1,8.5c0,0-6.6-7.2-8-10.2
	c-2.4-5.3,5.1-16.5-2.8-21.6c0,0,4.5,5.1,1.7,11.4c0,0-5.1-1.1-3.4-6.3c0,0-3.7,0.7-0.6,9.1c1,2.6,2.4,9.7,3.7,12.1
	c3.7,6.4,11.6,10.6,13.3,24.3L120.3,135.5z"/>

<path class="st0" d="M223.8,149c0,0,7.7,11.1,8.4,15.4c0.6,3.9-2,10-2.5,12.3c-0.4,2.3-21.1,15.4-11.8,23.4c0,0-2.3-9,10.8-17.8
	c0,0-3.1,13.9,6.1,24.1c0,0-10.4-19.9-1.5-24.4c0,0,4.4,10.2,5.1,17.3c0,0,2.2-9.3-3.1-22c-0.8-2-1.6-7.3,0.6-8.6c0,0,7,6.8,8.6,9.7
	c2.7,5.1-4.1,16.8,4.2,21.4c0,0-4.9-4.8-2.4-11.2c0,0,5.2,0.8,3.8,6c0,0,3.7-0.9,0-9.1c-1.1-2.5-3-9.5-4.5-11.8
	c-4.1-6.2-12.3-9.9-14.8-23.4L223.8,149z"/>

</g>
</svg>
