<svg xmlns="http://www.w3.org/2000/svg" viewBox="0 0 413.79 330.24"><defs><style>.cls-1{fill:none;stroke:#ccc;stroke-miterlimit:10;stroke-width:15px;}.cls-2{fill:#cf8734;}.cls-3{fill:#f0bf5b;}.cls-4{fill:#cf856b;}.cls-5{fill:#d39556;}</style></defs><title>Asset 6</title><g id="Layer_2" data-name="Layer 2"><g id="Layer_1-2" data-name="Layer 1"><path class="cls-1" d="M401.27,174.51a9.7,9.7,0,0,0-.36-4.3,40.13,40.13,0,0,0-4.64-9.7c7-22-8-33-8-33-6-30-13-25-13-25,4-29-79-77-79-77-61-28-80-15-80-15-14-7-33,0-33,5s-3.51,4.58-5,4c-10.88-4.21-13.45-3.37-18-3-10.16.82-16.21,10.32-22,9-5.25-1.2-5.2-3.62-7-3-61,21-94,71-94,71-25,21-31,60-29,66s4.22,12.63,2,16c-4.54,6.88-5,5,10,34s12.24,28.1,22,29c28.89,2.67,14,4,27,8s41-5,41-5l1.8.6s-1,18.4,8.2,26.39c12.38,10.73,17,16,65,18,11.94.5,32-13,46-13,0,0-1.29-.76-3.4-2.26l.4.26c10.5,6.5,36.5,25.5,44,34,8.74,9.9,29.5,28.5,33,8,.52-3-3.15-8.64-5.5-13.5a64,64,0,0,0-8-11c-5.26-5.26-4.76-10.91-4.55-12.22,15.27-3.58,15.05-19.28,15.05-19.28,21,8,34.22,6.21,43,0,7.47-5.29,12.27-10.85,15-16.44,0,.29,0,.45,0,.45,20,5,29-13,29-13C419.27,177.5,400.27,179.5,401.27,174.51Zm-209.32,48v0l-.14,0Z"/><path class="cls-2" d="M192.29,223.32l-80.2,19.6s-1,18.4,8.2,26.4c12.38,10.73,17,16,65,18,11.94.5,32-13,46-13C231.29,274.32,202.29,257.32,192.29,223.32Z"/><path class="cls-3" d="M110.29,242.32s-28,9-41,5,1.89-5.33-27-8c-9.76-.9-7,0-22-29s-14.54-27.12-10-34c2.22-3.37,0-10-2-16s4-45,29-66c0,0,33-50,94-71,1.8-.62,1.75,1.8,7,3,5.79,1.32,11.84-8.18,22-9,4.55-.37,7.12-1.21,18,3,1.49.58,5,1,5-4s19-12,33-5c0,0,19-13,80,15,0,0,83,48,79,77,0,0,7-5,13,25,0,0,15,11,8,33a40.14,40.14,0,0,1,4.64,9.7,9.7,9.7,0,0,1,.36,4.3c-1,5,18,3-12,54,0,0-9,18-29,13,0,0,15-54-70.5-58.5,0,0-31,1-40,7s-24.82-1.1-33,0c-9.91,1.33-32,18-24,32,0,0-24,15-28,26S110.29,242.32,110.29,242.32Z"/><path class="cls-4" d="M287.79,276.82a13.91,13.91,0,0,0,4,13,64.05,64.05,0,0,1,8,11c2.35,4.86,6,10.47,5.5,13.5-3.5,20.5-24.26,1.91-33-8-7.5-8.5-30.23-26-41-32-25-14-34-35-39.5-51.5-2.28-6.84,1-32.94,24.5-32.5,26.5.5,43-2,43-2s-17.5,18.5-22.5,24.5-7,29,16,35c0,0-7.05,13.61,5.5,20.5C264.4,271.67,274.79,278.82,287.79,276.82Z"/><path class="cls-5" d="M253.62,190.32c9.08-8.66,48.67-11,76.67-3,17.13,4.9,55.82,42.12,15,71-8.78,6.21-22,8-43,0,0,0,.35,23.26-27.32,19.63,0,0-32.68-6.63-23.68-30.63C251.29,247.32,204.29,237.32,253.62,190.32Z"/><path class="cls-2" d="M48.65,187.33c4.87,4.15,9.88,8.54,15.33,11.93,4.86,3,10,3.51,15.6,4,7,.55,16.05,2.28,21.15,7.6,5.79,6,1.53,26.05-9.34,22.83-1.25-.37-1.34,1.11-.26,1.43,13.47,4,18.45-19.36,9.45-26.14-6.45-4.86-14.16-6.72-22.06-7.34-5.53-.43-10.46-1.22-15.15-4.43a164.67,164.67,0,0,1-13.55-10.69c-.83-.71-2.17,0-1.17.86Z"/><path class="cls-2" d="M94,179.37c-3.68-.89-7.53.26-11.15-.62-4.18-1-4.62-5.15-8.16-6.53-2.16-.84-4.44.12-6.52-1.49-1.18-.91-1.9-2.52-2.88-3.63a11.12,11.12,0,0,0-5.23-3.49c-8.41-2.64-17.1,2.07-23.15-6.83-3.05-4.49-3.2-9.36-1.38-14.31,1.06-2.91,2-5.07.92-8.1-.31-.85-2.15-1.07-1.72.09,1.55,4.23-2.51,9.35-2.34,13.91a17.19,17.19,0,0,0,3,8.9c3.93,5.77,9.77,7.3,16.41,7.27a30.64,30.64,0,0,1,7.11.3c4.22,1,4.79,3.18,7.18,5.8S71,173.12,74,174.4s4.41,4.44,7.7,5.57c4,1.37,8.45,0,12.54,1,1.27.31.72-1.33-.22-1.56Z"/><path class="cls-2" d="M57.14,159.35a16.26,16.26,0,0,0,.48-13.58c-1.08-2.51-2.9-4.54-4.29-6.87a34.08,34.08,0,0,1-4-12c-2-12-2.33-26.08,6-35.9.59-.7-1.08-1.79-1.7-1.06-7.11,8.42-7.8,19.65-6.89,30.2.47,5.45,1.23,11.11,3.51,16.15,1.23,2.72,3.12,5,4.63,7.51a15,15,0,0,1,.63,14.49c-.4.86,1.31,1.89,1.7,1.06Z"/><path class="cls-2" d="M77.22,138.53c-10.47-10.85-12.49-27.6-12.53-42.07,0-9.82,9.16-9.81,16-13.31a45,45,0,0,0,12.77-9.88c.61-.66-1.05-1.76-1.7-1.06-6.37,6.94-13.48,9.78-22,13.21-5.88,2.37-7.13,6.37-6.89,12.35.59,14.76,2.42,30.51,13.13,41.61.77.8,2.08.08,1.17-.86Z"/><path class="cls-2" d="M82.39,175.35c-7.79-6.5-6.33-21.58-4.19-30.32,2-8.3,5.83-16.12,3.33-24.74-.25-.87-2.07-1.09-1.72.09,1.79,6.18.05,12.09-1.74,18A62,62,0,0,0,75,155.3c-.14,7.3.21,15.88,6.25,20.91.83.7,2.18,0,1.17-.86Z"/><path class="cls-2" d="M164.51,104.1c.49-4.89.82-10.16-2.52-14.19-3.63-4.38-10.3-6.77-15.39-8.82-9.68-3.91-22-5.33-29.61,3.42-3.82,4.41-5.58,10.11-8.25,15.2-3.6,6.85-9.65,10-14.87,15.32-3.38,3.43-5.8,7.92-4.58,12.81,1.16,4.64,5.06,7.82,7.73,11.58,6.27,8.8-.26,16.07-2.8,24.76-1.43,4.89-1.25,10,2.56,13.64.79.77,2.11.05,1.17-.86-6.4-6.18-.35-15.25,2.16-21.65,1.89-4.82,2.5-9.47-.11-14.12-2.78-4.95-8.8-8.84-9.23-14.89-.58-8.22,8.23-12.58,13.37-17.26,8.6-7.82,9.18-22.87,20.44-27.84,7.31-3.23,15.52-1.27,22.56,1.66,3.8,1.58,8.21,3.31,11.42,5.9,4.86,3.92,4.65,9,4.09,14.64-.09.89,1.73,1.69,1.83.71Z"/><path class="cls-2" d="M60,196.4c-3.21,1.23-7.09,2.93-10.57,2.22s-6.2-3.27-9.41-4.77a24.17,24.17,0,0,0-4.37-1.43c-1.43-.36-4.12-.49-5.29-1.41l-3-5.13A18.08,18.08,0,0,0,28,183.6a15.84,15.84,0,0,0-1.46-10.9c-2.24-4.16-7.23-6.53-8.48-11.22-.22-.83-2.12-1.36-1.84-.32,1.67,6.32,8.6,8.84,10,15.48,1,4.71-3.24,10.59.91,14.21,1.5,1.31,3.63,1.85,5.5,2.36a49.35,49.35,0,0,1,12.06,5.11c5.5,3.1,10.73,1.74,16.35-.41,1-.4-.27-1.83-1.09-1.51Z"/><path class="cls-2" d="M52.71,240.45c4.94,1.26,9.77-.74,13-4.65,4.18-5.12,4.33-12.18,4.14-18.46,0-.88-1.87-1.44-1.84-.32.27,9-2.52,25.19-15.48,21.87-1.26-.32-.71,1.32.22,1.56Z"/><path class="cls-2" d="M103.71,216.42a13.38,13.38,0,0,1,6.54,7.54c.9,2.61.46,5.26,1,7.92.92,4.36,4.62,7.73,4.16,12.4-.09.89,1.74,1.69,1.83.71a12,12,0,0,0-1.45-6.7,38.68,38.68,0,0,1-2.3-4.91c-.7-2.19-.48-4.27-.8-6.51a15.46,15.46,0,0,0-8.27-11.63c-1.07-.58-1.84.59-.74,1.19Z"/><path class="cls-2" d="M127.88,216.35c-.35,8.18,5.16,11.54,11.28,15.52,2.88,1.87,5.12,3.8,6.12,7.19.8,2.69.45,5.48.9,8.22a10.11,10.11,0,0,0,4.18,7.11c1,.72,1.74-.48.74-1.19-4.62-3.28-2.68-9.34-3.89-14a11.58,11.58,0,0,0-3-5.31c-5.58-5.71-14.9-6.86-14.47-16.87,0-.89-1.79-1.68-1.83-.71Z"/><path class="cls-2" d="M123.88,140.85c2-4.48,4.33-8.78,6.54-13.16,2.05-4,3.55-8.45,5.78-12.38,4.64-8.17,14.87-10,23.55-10.26,14.49-.47,8,19.23,4.51,26.3-3.83,7.68-8.9,14.65-12.42,22.5-.39.87,1.32,1.89,1.7,1.06,4.59-10.24,12.07-19.15,15.51-29.91,2-6.34,3.26-16.76-3.94-20.53-3.91-2-9.2-.85-13.34-.21-4.32.67-8.77,1.77-12.37,4.37-4.19,3-5.86,7.67-7.89,12.21-2.88,6.43-6.47,12.51-9.34,18.94-.39.87,1.32,1.89,1.7,1.06Z"/><path class="cls-2" d="M167.91,128.52c4.95-3.5,11.47-8.28,17.93-6.28,8.81,2.73,8,12.5,3.69,18.73-5.5,7.93-14.64,12.34-17.81,21.93-.28.84,1.51,1.68,1.83.71,4.1-12.42,24.32-19.51,20.73-34.64a11.39,11.39,0,0,0-9.95-8.59c-6.74-.92-12.65,3.11-17.87,6.81-.82.58.71,1.86,1.44,1.34Z"/><path class="cls-2" d="M183.88,149.8a69.32,69.32,0,0,1,14.79-6.45,33.27,33.27,0,0,1,7.31-1.71c2.61-.14,7.31,2.75,7.84,5.46a11.21,11.21,0,0,1-.32,3.92c-1.88,9.32-10.64,15.64-17,21.93a158.24,158.24,0,0,0-17.93,21c-2.92,4.11-5.84,10.88.65,13.27,1.23.45,1.3-1,.26-1.43L177,202.54a8.34,8.34,0,0,1,1.35-4.69,30,30,0,0,1,2.43-3.59c1.55-2.15,3.17-4.26,4.84-6.33a159,159,0,0,1,12.32-13.64c6.18-6.09,14-11.94,16.86-20.51,1.73-5.27,1.19-13.14-5.63-14-4-.49-8.67,1.12-12.38,2.28a71.23,71.23,0,0,0-14.31,6.38c-.85.49.66,1.78,1.44,1.34Z"/><path class="cls-2" d="M169.63,223.64a22,22,0,0,1,.75,4.47c.15.86,2,1.41,1.84.32a23.74,23.74,0,0,0-.87-4.88c-.33-.84-2.17-1.05-1.72.09Z"/><path class="cls-2" d="M155.48,174.07a8.5,8.5,0,0,0-5,8.47,8,8,0,0,0,2,4.77c2.31,2.64,5.29,3.51,3.69,8.12-.29.83,1.49,1.68,1.83.71,1.13-3.24.7-5.24-1.85-7.53-1.9-1.7-3.65-2.91-3.86-5.76a7.41,7.41,0,0,1,4.22-7.27c1-.48-.29-1.89-1.09-1.51Z"/><path class="cls-2" d="M156.67,200.13C153,197,148,196,144.45,192.58A21.4,21.4,0,0,1,138,176.87c0-.87-1.84-1.44-1.84-.32a23,23,0,0,0,5.16,14.72c4,4.9,9.63,5.8,14.21,9.71.83.71,2.17,0,1.17-.86Z"/><path class="cls-2" d="M137.5,79.26c3.9-4.39,1.26-10.39-2.74-13.71-2.75-2.28-6.14-3.57-9.12-5.49a21.85,21.85,0,0,1-9.22-12.65c-.25-.87-2.07-1.09-1.72.09a23.73,23.73,0,0,0,9,12.92c5.17,3.69,19.68,9.3,12.14,17.77-.6.67,1.06,1.77,1.7,1.06Z"/><path class="cls-2" d="M135.62,66.76c-7-5.29-2.83-14.45,3.29-18,4-2.35,8.37-3,11.13-7.16s1.81-8.59,2.6-13.13c.58-3.32,1.24-5.54-1.27-8-.78-.78-2.1-.07-1.17.86,2.36,2.36.4,7.06.26,9.86-.17,3.41-.17,6.41-2.12,9.39-3.18,4.87-9.53,5.19-13.66,8.94-5.73,5.19-6.14,13.72.19,18.5,1,.75,1.72-.45.74-1.19Z"/><path class="cls-2" d="M269.59,185.43a151.71,151.71,0,0,0-10.23-52q-2.57-6.6-5.77-12.93c-1.86-3.67-4.28-7.19-5.67-11.06-2.13-5.92-.55-11.41,5.8-13.13,2.56-.69,4.63-1.09,6.39-3.15.59-.69-1.08-1.78-1.7-1.06-2.43,2.84-6.38,2.15-9.33,4a9.12,9.12,0,0,0-4,7.64c-.12,3.53,1.38,6.78,3,9.83,2.35,4.45,4.75,8.84,6.81,13.44a150.25,150.25,0,0,1,12.84,58.17c0,.88,1.86,1.44,1.84.32Z"/><path class="cls-2" d="M266.14,153c4.15-2.67,8.64-6.19,8.86-11.58a9.56,9.56,0,0,0-1.15-4.63c-1.77-3.71-3.71-8.2-3-12.47.79-4.92,8-5.09,10-9.6,2.6-5.78-1.29-12.33.18-18.31.21-.86-1.59-1.7-1.83-.71-1.41,5.74,1.86,11.48.24,17.1-1.53,5.31-8.26,4.7-10.13,9.42-1.45,3.66.24,9.21,1.65,12.63s3.06,6.15,1.06,9.94c-1.61,3-4.53,5.06-7.35,6.87-.84.54.68,1.82,1.44,1.34Z"/><path class="cls-2" d="M295.06,97.81c1.31,13.91,2.66,28.92-4.19,41.71-2.57,4.8-7.08,8.37-7.36,14.12-.31,6.33,3.25,12.18,4.5,18.23.18.85,2.06,1.39,1.84.32-1.32-6.39-5.54-12.93-4.34-19.61.72-4,3.78-6.61,5.85-9.89a37.82,37.82,0,0,0,3.28-6.68c4.62-12.1,3.44-25.27,2.26-37.87-.08-.87-1.94-1.43-1.84-.32Z"/><path class="cls-2" d="M290.75,140.48c-2.16,9.48,10.84,10,15.17,15,3.36,3.85-.67,8.06,1.5,12.4,1.27,2.53,3.31,4.4,4.31,7.14a17,17,0,0,1,.3,9.87c-.21.87,1.6,1.7,1.83.71a18.37,18.37,0,0,0-1-12,41.36,41.36,0,0,0-2.83-4.45c-2.82-4.59-.67-5.25-.47-9.19.13-2.64-1.39-4.87-3.33-6.51A19.27,19.27,0,0,0,301,150.5c-3.91-1.61-9.55-4.14-8.37-9.31.2-.87-1.61-1.7-1.83-.71Z"/><path class="cls-2" d="M225,64.17c1.72,15.19,20.54,13.9,31.58,14.75a188.12,188.12,0,0,1,26.25,3.9c6.82,1.51,15.34,3.09,20.28,8.51,5.41,5.94,3.88,15.55,5.33,22.92a63.69,63.69,0,0,0,8.46,20.93c2.23,3.65,4.7,7.18,6.25,11.2,1.71,4.43,2.26,9.23,3,13.9q2,13.59,4.05,27.19c.39,2.59,6,4.24,5.52.95q-2-13.59-4.05-27.19c-1.17-7.8-2.61-14.89-6.65-21.75-4.64-7.89-9.19-15.12-11-24.27-1.37-6.92-.52-14.5-3.55-21C305,82.41,289.86,79.63,278.48,77.35a190.12,190.12,0,0,0-25.12-3.3c-7.31-.47-21.68,1.28-22.84-8.94-.29-2.61-5.89-4.28-5.52-.95Z"/><path class="cls-2" d="M273.38,76.67C267.95,72,259.68,68.06,258,60.5c-.72-3.16,0-6.46-.64-9.64a17.36,17.36,0,0,0-3.33-7.1c-7-9.27-19.39-16.41-31-16.71-1.21,0-.21,1.57.67,1.59,8,.21,15,3.69,21.21,8.45,6.41,4.89,10.7,9.91,10.9,18.28.27,11.39,8.63,15.41,16.45,22.16.83.71,2.17,0,1.17-.86Z"/><path class="cls-2" d="M256.48,54.11c3.57,1.11,8.2,4.89,12.19,3a5.85,5.85,0,0,0,2.75-3.28c1.71-3.68,3.36-6.58,8-7,7.29-.65,9.85,6.42,15.88,8.2,4.63,1.36,9.31-1,13.29-3.13.85-.46-.65-1.76-1.44-1.34a35.2,35.2,0,0,1-4.49,2.15c-3.25,1.17-4.51,1.19-7.79-.22-2.93-1.26-4.41-2.88-6.94-4.54a14.8,14.8,0,0,0-9.19-2.7,10.17,10.17,0,0,0-7,3.45c-1.08,1.31-1.45,4.27-2.59,5.35L263,55.36q-1.48-.69-2.94-1.42a30.39,30.39,0,0,0-3.27-1.26c-1.25-.39-1.33,1.1-.26,1.43Z"/><path class="cls-2" d="M329.73,160.87c-1.08-8.27-2.17-17.11,1.52-24.91,2.92-6.17,5.27-11,5.52-18.06.19-5.46.64-11.67-2.58-16.33-1.89-2.74-4.42-5.05-6.43-7.73a83.53,83.53,0,0,1-7.16-11.42c-.41-.78-2.29-1-1.72.09A88.46,88.46,0,0,0,330,99c3.28,3.83,4.61,6.8,4.8,11.67a61.09,61.09,0,0,1-.33,11.52c-1,6.51-5.18,11.42-6.75,17.67-1.7,6.76-.77,13.91.12,20.71.11.87,2,1.42,1.84.32Z"/><path class="cls-2" d="M335.4,119c-.77,6.76-1.45,14.48,2,20.66,1.62,2.89,4,4.64,6.66,6.43,4,2.65,5.46,6,4.85,10.79a46.59,46.59,0,0,0-.84,6.68,14.41,14.41,0,0,0,3,8.47c2.28,3,5.09,3.68,8.17,5.5,12.69,7.49,4.11,21.61-2.38,30-.56.73,1.12,1.81,1.7,1.06,4.89-6.36,10.31-13.72,8.83-22.24a14.16,14.16,0,0,0-3.79-7.64c-4.11-4.06-10.28-4-12.69-10.13-3.07-7.87,3.86-16.52-4.2-22.51-4.69-3.48-8.25-5.88-9.49-12-1-4.73-.51-9.64,0-14.4.1-.89-1.72-1.7-1.83-.71Z"/><path class="cls-2" d="M334.42,100c-3.58-6.22-5.7-12.71.3-18.14,2.8-2.53,6.28-4.29,8.42-7.5,3.67-5.5,2.21-12.67-2.31-17.13-.79-.78-2.1-.06-1.17.86a12.13,12.13,0,0,1,1.79,15.21c-2.4,3.62-6.61,5.44-9.55,8.54-5.46,5.75-2.41,12.68,1,18.65.49.86,2.15.64,1.5-.49Z"/><path class="cls-2" d="M345.27,144.88a12.19,12.19,0,0,1,1.84-10.09c1.45-2,2.17-2.62,4.71-1.73.4.14.58.86,1.07,1,3.27.76,5.28-.54,5.77-4.17.53-4-.24-6.7,2.52-10.24,2.1-2.69,5-4.36,7.24-6.91,2.5-2.91,3.21-6.53.07-9.16-.83-.7-2.18,0-1.17.86,5.55,4.65-6.89,12.05-9.13,16a11.21,11.21,0,0,0-1.44,5.31c-.05,1.56.09,5.66-1.33,6.65-2.86,2-2.32-1.11-3.56-1.61-6.8-2.78-9.46,9.14-8.43,13.8.19.84,2.08,1.38,1.84.32Z"/><path class="cls-2" d="M398.78,170c-13.1,2.69-14.07,19.44-19.48,29.12a53,53,0,0,1-6.61,8.91c-1.3,1.49-2.27,2.34-2.46,4.46-.4,4.71,3.35,9.23,6.85,11.82,1,.74,1.72-.46.74-1.19-2.37-1.76-5.82-5.54-5.63-8.83s2.84-5.68,4.76-8.07a48.48,48.48,0,0,0,6.85-11.9c3.57-8.58,5.31-20.6,16.07-22.8,1.06-.22-.24-1.69-1.09-1.51Z"/><path class="cls-2" d="M259.78,186.56c-.2-8.5-4.81-16.25-8.56-23.68-4.1-8.13-8.53-16.08-13-24a216.59,216.59,0,0,0-14.35-23.21c-5.19-7-11.81-12.53-17.3-19.25-5.24-6.42-11-13.59-13.73-21.52-2.41-7.12-1.48-14.22-.73-21.51,1.33-13,2.22-26.18,4.6-39,.7-3.8-5.21-4.82-5.92-1-2.41,13.06-3.3,26.43-4.66,39.62-.68,6.63-1.52,13.11-.09,19.72,1.68,7.78,5.92,14.12,10.51,20.48,5.14,7.12,11.3,12.8,17.07,19.32,6,6.81,10.9,14.55,15.44,22.39q7.35,12.68,14.2,25.67c4.2,8,10.27,17.32,10.5,26.58.09,3.87,6.07,3.33,6-.52Z"/><path class="cls-2" d="M84.24,178.68c-2.57-6.12-2.39-12.67-2.35-19.19Q82,148.74,82,138c0-7.39-.06-14.81.17-22.2.21-6.82,1.7-12.4,6.33-17.55,6.6-7.34,13.25-13.7,10.72-24.46-2.11-9-9.09-16.06-17.42-19.57-3.65-1.53-3.83,3-.79,4.28,9.23,3.88,16.58,15.31,11.83,25.2-2.12,4.41-6,7.58-9.25,11.15A24.6,24.6,0,0,0,77.15,108c-1.75,11.62-.6,24.11-.68,35.84-.08,11.35-1.92,24.35,2.59,35.08,1,2.48,6.6,3.12,5.17-.27Z"/><path class="cls-2" d="M186.4,241.73c-.31-4.88-4.08-7.61-7.74-10.26-5.48-4-6.91-8.87-9.13-15a31.62,31.62,0,0,0-8.76-12.95c-4.28-3.9-9.62-7-13-11.83-3.21-4.55-3.5-10.4-8-14.1-4-3.34-9.64-4.13-14.69-3.38-6.8,1-13.09,4.1-19.91,5.14-5.39.82-18.07,2.94-20.83-3.47-1.06-2.46-6.63-3.11-5.17.27,4.33,10,18.21,9.3,27.16,8.08,6.84-.93,13.06-3.67,19.76-5,3.78-.78,8.83-1,11.56,2.31,2,2.43,2.42,6.07,3.87,8.83,5.17,9.84,17.22,13.64,21.82,23.8,2.2,4.87,3,10.29,6.2,14.71,2.85,4,11,6.86,11.34,11.92.17,2.62,5.73,4.31,5.52.95Z"/></g></g></svg>