<svg xmlns="http://www.w3.org/2000/svg" viewBox="0 0 409.96 587.8"><defs><style>.cls-1{fill:#d25f79;}.cls-2{fill:#e29e5a;}.cls-3{fill:#a1566a;}.cls-4{fill:#a15368;}.cls-5{fill:#c3c878;}.cls-6{fill:#a64f6a;}</style></defs><title>Asset 3</title><g id="Layer_2" data-name="Layer 2"><g id="Layer_1-2" data-name="Layer 1"><path class="cls-1" d="M170,451.84s-12,38.43,4.8,71.26c0,0,7.21,20,6.41,48.84,0,0,18.42,32.83,33.63,4,0,0,7.21-29.63,9.61-37.63,0,0,5.6-20,11.21-28Z"/><path class="cls-2" d="M212.14,0s-13,99,53.52,117.51c0,0,7.67-18.51,10.67-22.51,0,0-44.57-3.51-41-87Z"/><path class="cls-3" d="M216.49,1.31S205.69,94.46,266,114.43c0,0,2.74-9,7.36-15.25,0,0-47.37-4.88-42.15-92.64Z"/><path class="cls-2" d="M157,192.38s13.74,23.06,50.56,19.34c5-.5,4.06-4.52,19.75.51s97.85,9,129.23-31.73c33.33-43.3,15.07-119.58-51.35-110.37C292.8,71.84,282.41,72.54,261,126.4c-5.16,13-28.83,24.81-50.07,23.7-7.33-.38-31.25-13.56-46.92,4.17,0,0-8.28-4-12.84-3-21.21,4.64-48.72,51.88-16.83,89.48,8.38,9.87,28,23.49,49,13.61,7.26-3.41,14.38-16,27.76-13.58s26.63,6.29,18.17,38.22l22.58,7.74s16.68-41.46-13.39-62.52c-33.82-23.68-50.62,3.07-62.78,6.37-13.32,3.61-44.18-20.88-26.51-48.59C149.19,182,153,192.77,157,192.38Z"/><path class="cls-4" d="M210.36,157c-10.93-2.67-33.9-14.11-46.7,3.53-6.77,9.34-10.83,35.73,17.4,41.51,8,1.64,12,1.27,32.56-2.7,17.13-3.31,27.22,11.82,85.27-1,49.38-10.88,65.79-59.18,61-82.5s-40.37-52.23-68-27.59c-6.89,6.14-15.48,19.22-20.17,32.89S239.21,164.06,210.36,157Z"/><path class="cls-5" d="M213.06,176.59s2.54-22.94-30.85-22c-9.37.28-24.75,10-17,31.85,2.1,5.89,14.41,12.19,32.12,11,15.64-1,13.3-13.92,13.74-15.19s6.63-4.83,6.12,4.94,9.51,10.15,13.84,10.43c2.77.18,11.37,1.06,11.37,1.06s1.06-23.81,34.78-26.81,52-44,39.75-59.94c-1.2-1.56-.06-5,4.94-6.12,0,0-9.73-5.83.73-10.41,0,0-9-4.86-1.09-9.26,0,0-26.08-9.58-42.69,31.21-6.3,15.47-18.09,39.29-51.1,44.32-4.5.69-7.62,4.65-10.44,14.9C217,177.66,214.72,181.07,213.06,176.59Z"/><path class="cls-1" d="M328.8,81.6s-18.25,7.6-6.18,13.87c0,0-10,4.38-.73,10.41,0,0-9.58,1-3.12,9.11,5.49,6.92.58,51.66-42.95,57.09,0,0-31.06,1.18-35.24,30,0,0,10.18,3.49,25.23,1.31,12.69-1.84,71.72-1.11,90.16-54.72C356,148.62,377.78,97.33,328.8,81.6Z"/><path class="cls-1" d="M359.77,176.41s-31.23,42.44-147.33,32.83c0,0-36.83,7.21-55.25-16.81,0,0-43.24,2.4-63.25,14.41,0,0-27.22-12-48.84,16,0,0-40,8-39.23,86.47C6,319.71-1.47,344.51.26,354.16c1.47,8.16,24,41.64,24,41.64s10.41-24.82,20-28c0,0,2-11.77,6-15.77s-32-31.15,12-84c0,0,17.19,11.81,30-1s28.84-6.52,46.45,9.49c0,0,20.13,9.91,38.55,3.51,0,0,29.91,6.5,41.92-3.91,0,0,37.66,12.52,56.08-1.09,0,0,29.6-.51,44-12.52,0,0,24.59-7.69,31,3.52,0,0,37-4,43.47,39.72,0,0,3.2,13.61,0,19.22s6.41,3.2-7.21,20.82c0,0,18.42,40-6.41,48,0,0,5.6,28.82-16,40.84,0,0,4.8,24-32.83,25.62,0,0-16,12.81-31.23,17.62,0,0-52-6.41-47.24,4,0,0-32.83-1.6-43.24,12.81,0,0-31.23-8-12.81,12.81,0,0,10.41,9.61,39.23,3.2s29.63-10.41,29.63-10.41,55.25,3.2,77.67-18.42c0,0,37.63,5.6,42.44-39.23,0,0,22.42-16,9.61-44,0,0,17.62-12.81,8-52.85,0,0,4.8-8,3.2-29.63s1.6-21.62,0-21.62,5.6-24,.8-43.24S433.83,193.62,359.77,176.41Z"/><path class="cls-6" d="M393.4,305.32,371,342.15,174.92,462.6s-8.92,14.86,8.7,50.09a210.36,210.36,0,0,1,4,57.65s13.61,12,25.62,0c0,0-4-18.42,4.8-36.83,0,0,4.8-17.21,4.8-20.62,0,0-30,2.84-29.8-10.29,0,0-11-13.93,17-8.32,0,0,28-17.62,44.84-9.61,9.77,4.65-1.43,5.76,43.24-2.4,9.67-1.77,16-6.41,32.83-21.62,0,0,35.63,2,37.63-24.82,0,0,15.21-8,15.21-41.64,0,0,24-12.81,6.41-48C390.2,346.15,410.35,315,393.4,305.32Z"/><path class="cls-2" d="M41.1,367.77s-33.63,18.42-4.8,58.45,73.66,4.8,76.07-4-26.42,52.85,24.82,56.85c0,0,22.42,4,29.63-18.42,0,0,29.63,11.21,36-15.21,0,0,15.21,6.41,44,1.6,0,0,36,11.21,45.64,13.61s35.23,4.8,43.24-21.62c0,0,56.85,6.41,33.63-44.84,0,0,27.22-17.62,8-54.45,0,0,32.18-21.49,5.68-63.59,0,0-14.49-18.08-32.91-13.27,0,0-1.6-13.61-31.23-.8,0,0-3.2,10.41-44.84,8,0,0-16.81,9.61-55.25,2.4,0,0-10.41,12.81-41.64,1.6,0,0-26.83,10.94-56.25-14.15,0,0-18.21-9.07-29.42,3.74s-29.63,1.6-29.63,1.6-40,36.83-15.41,80.87C46.5,346.15,48.3,359,41.1,367.77Z"/></g></g></svg>