<?xml version="1.0" encoding="utf-8"?>
<!-- Generator: Adobe Illustrator 22.0.1, SVG Export Plug-In . SVG Version: 6.00 Build 0)  -->
<!DOCTYPE svg PUBLIC "-//W3C//DTD SVG 1.1//EN" "http://www.w3.org/Graphics/SVG/1.1/DTD/svg11.dtd">
<svg version="1.1" id="Layer_1" xmlns="http://www.w3.org/2000/svg" xmlns:xlink="http://www.w3.org/1999/xlink" x="0px" y="0px"
	 viewBox="0 0 300 300" style="enable-background:new 0 0 300 300;" xml:space="preserve">
<style type="text/css">
	.st0{fill:#D25F79;}
	.st1{fill:#E29E5A;}
	.st2{fill:#A64F6A;stroke:#A64F6A;stroke-width:2;stroke-miterlimit:10;}
	.st3{fill:#65B9B9;}
	.st4{fill:#99002B;}
	.st5{fill:#E894A7;}
	.st6{fill:#D7ECEC;}
	.st7{fill:#8BCACA;}
	.st8{fill:#E6C1CB;}
	.st9{fill:#B2405F;}
	.st10{fill:#BB5974;}
	.st11{fill:#A64F6A;}
	.st12{fill:none;stroke:#CCCCCC;stroke-width:10.4692;stroke-miterlimit:10;}
	.st13{fill:#D39556;}
	.st14{fill:#CF856B;}
	.st15{fill:#F0BF5B;}
	.st16{fill:#CF8734;}
	.st17{fill:none;stroke:#CF8734;stroke-width:5;stroke-linecap:round;stroke-linejoin:round;stroke-miterlimit:10;}
	.st18{fill:none;stroke:#CF8734;stroke-width:2;stroke-linecap:round;stroke-linejoin:round;stroke-miterlimit:10;}
	.st19{fill:#A15368;}
	.st20{fill:#C3C878;}
svg {
	width:300px;
}

path.st17 {
  stroke-dasharray: 1000;
  stroke-dashoffset: 1000;
  animation: dash2 5s linear forwards infinite;
}

path.st18 {
	stroke-dasharray: 120;
  animation: dash1 10s linear infinite;
}

@keyframes dash1 {
  to {
    stroke-dashoffset: 1000;
  }
}

@keyframes dash2 {
  to {
    stroke-dashoffset: 0;
  }
}


</style>
<path class="st12" d="M288,148.6c0.2-0.9,0-1.9-0.3-3c-0.9-3.2-3.2-6.8-3.2-6.8c4.9-15.4-5.6-23-5.6-23c-4.2-20.9-9.1-17.4-9.1-17.4
	c2.8-20.2-55.1-53.7-55.1-53.7c-42.6-19.5-55.8-10.5-55.8-10.5c-9.8-4.9-23,0-23,3.5s-2.4,3.2-3.5,2.8c-7.6-2.9-9.4-2.4-12.6-2.1
	c-7.1,0.6-11.3,7.2-15.4,6.3c-3.7-0.8-3.6-2.5-4.9-2.1C57,57.1,34,92,34,92c-17.4,14.7-21.6,41.9-20.2,46.1s2.9,8.8,1.4,11.2
	c-3.2,4.8-3.5,3.5,7,23.7s8.5,19.6,15.4,20.2c20.2,1.9,9.8,2.8,18.8,5.6s28.6-3.5,28.6-3.5s0.5,0.2,1.3,0.4c0,0-0.7,12.8,5.7,18.4
	c8.6,7.5,11.9,11.2,45.4,12.6c8.3,0.3,22.3-9.1,32.1-9.1c0,0-0.9-0.5-2.4-1.6c0.1,0.1,0.2,0.1,0.3,0.2c7.3,4.5,25.5,17.8,30.7,23.7
	c6.1,6.9,20.6,19.9,23,5.6c0.4-2.1-2.2-6-3.8-9.4c-0.9-1.8-4.1-6.2-5.6-7.7c-3.7-3.7-3.3-7.6-3.2-8.5c10.7-2.5,10.5-13.5,10.5-13.5
	c14.7,5.6,23.9,4.3,30,0c5.2-3.7,8.6-7.6,10.5-11.5c0,0.2,0,0.3,0,0.3c14,3.5,20.2-9.1,20.2-9.1C300.6,150.7,287.3,152.1,288,148.6z
	 M141.9,182.1C142,182.1,142,182.1,141.9,182.1L141.9,182.1C141.9,182.1,141.9,182.1,141.9,182.1z"/>
<g>
	<g>
		<path class="st13" d="M142.2,182.6l-56,13.7c0,0-0.7,12.8,5.7,18.4c8.6,7.5,11.9,11.2,45.4,12.6c8.3,0.3,22.3-9.1,32.1-9.1
			C169.4,218.2,149.2,206.4,142.2,182.6z"/>
		<path class="st13" d="M238.5,157.5c-19.5-5.6-47.2-3.9-53.5,2.1c-34.4,32.8-1.6,39.8-1.6,39.8c-6.3,16.8,16.5,21.4,16.5,21.4
			c19.3,2.5,19.1-13.7,19.1-13.7c14.7,5.6,23.9,4.3,30,0C277.5,186.9,250.5,160.9,238.5,157.5z"/>
	</g>
	<path class="st14" d="M208.8,220c0,0-1.4,4.9,2.8,9.1c1.4,1.4,4.7,5.9,5.6,7.7c1.6,3.4,4.2,7.3,3.8,9.4c-2.4,14.3-16.9,1.3-23-5.6
		c-5.2-5.9-21.1-18.1-28.6-22.3c-17.4-9.8-23.7-24.4-27.6-35.9c-1.6-4.8,0.7-23,17.1-22.7c18.5,0.3,30-1.4,30-1.4
		s-12.2,12.9-15.7,17.1c-3.5,4.2-4.9,20.2,11.2,24.4c0,0-4.9,9.5,3.8,14.3C192.5,216.4,199.8,221.4,208.8,220z"/>
</g>
<path class="st15" d="M85,195.9c0,0-19.5,6.3-28.6,3.5s1.3-3.7-18.8-5.6c-6.8-0.6-4.9,0-15.4-20.2s-10.1-18.9-7-23.7
	c1.5-2.3,0-7-1.4-11.2c-1.4-4.2,2.8-31.4,20.2-46.1c0,0,23-34.9,65.6-49.6c1.3-0.4,1.2,1.3,4.9,2.1c4,0.9,8.3-5.7,15.4-6.3
	c3.2-0.3,5-0.8,12.6,2.1c1,0.4,3.5,0.7,3.5-2.8s13.3-8.4,23-3.5c0,0,13.3-9.1,55.8,10.5c0,0,57.9,33.5,55.1,53.7
	c0,0,4.9-3.5,9.1,17.4c0,0,10.5,7.7,5.6,23c0,0,2.4,3.5,3.2,6.8c0.3,1.1,0.4,2.1,0.3,3c-0.7,3.5,12.6,2.1-8.4,37.7
	c0,0-6.3,12.6-20.2,9.1c0,0,10.5-37.7-49.2-40.8c0,0-21.6,0.7-27.9,4.9s-17.3-0.8-23,0c-6.9,0.9-22.3,12.6-16.8,22.3
	c0,0-16.8,10.5-19.5,18.1C120.2,208.1,85,195.9,85,195.9z"/>
<g>
	<g>
		<path class="st16" d="M65.5,149.2c-5.4-4.7-4.4-15.1-2.9-21.4c1.4-5.7,3.9-11,2.3-16.9c-0.2-0.6-1.5-0.9-1.3-0.2
			c2.2,8-3.1,16.1-3.3,24.1c-0.2,5.3,0.1,11.3,4.4,15C65.2,150.3,66.2,149.8,65.5,149.2L65.5,149.2z"/>
	</g>
</g>
<g>
	<g>
		<path class="st16" d="M126.4,182.9c0.4,1,0.3,2.1,0.5,3.1c0.1,0.6,1.4,1,1.3,0.2c-0.2-1.1-0.2-2.3-0.6-3.4
			C127.3,182.2,126.1,182.1,126.4,182.9L126.4,182.9z"/>
	</g>
</g>
<g>
	<g>
		<path class="st16" d="M117.3,166.4c-2.6-2.2-6-2.9-8.5-5.3c-3-2.9-4.5-6.8-4.5-11c0-0.6-1.3-1-1.3-0.2c0,3.8,1.2,7.3,3.6,10.3
			c2.8,3.4,6.7,4,9.9,6.8C117.1,167.5,118,167,117.3,166.4L117.3,166.4z"/>
	</g>
</g>
<path class="st17" d="M166.9,71.9c0.1,3.1,2.6,5.6,5.5,6.8c2.9,1.1,6,1.2,9.1,1.3c9.3,0.3,18.5,1.7,27.5,3.9
	c5.3,1.3,11,3.4,13.6,8.2c1.8,3.3,1.7,7.3,2,11c0.5,5.4,2.2,10.7,4.9,15.5c1.9,3.4,4.4,6.6,5.8,10.3c1.1,2.8,1.5,5.8,2,8.8
	c1,6.8,2,13.6,3,20.3"/>
<g>
	<path class="st18" d="M42.3,157.2c2.8,2.4,5.7,4.7,8.7,6.9c1.2,0.9,2.5,1.8,3.8,2.4c3.6,1.6,7.6,1.3,11.5,1.8
		c4.1,0.6,8.1,2.2,11.5,4.6c0.9,0.6,1.7,1.3,2.2,2.3c0.5,1,0.5,2.1,0.5,3.2c0,2.9-0.1,6-1.5,8.6s-4.6,4.4-7.3,3.3"/>
	<path class="st18" d="M73.7,152.5c-3.4-1.1-7.6,0.8-10.3-1.5c-1.2-1.1-1.9-2.9-3.4-3.5c-1.1-0.4-2.4-0.1-3.5-0.4
		c-1.9-0.6-2.7-2.8-4.1-4.1c-3.2-3-8.4-1.3-12.7-2.1c-6-1.1-10.1-8.2-8-13.9c0.8-2.1,2.2-4.4,1.1-6.3"/>
	<path class="st18" d="M47.3,137.6c1.6-2.9,1.6-6.6,0.1-9.6c-0.7-1.5-1.8-2.7-2.7-4.1c-2.2-3.6-2.9-7.9-3.4-12.1
		c-0.8-7.6-0.5-16.2,4.7-21.9"/>
	<path class="st18" d="M61.5,123.8c-3.6-3.6-5.9-8.4-7.1-13.4c-1.2-5-1.5-10.1-1.8-15.2c-0.1-1.9-0.2-3.9,0.8-5.5
		c1.3-2.2,4.1-2.8,6.5-3.6c4.9-1.6,9.4-4.6,12.8-8.4"/>
	<path class="st18" d="M122.2,99.2c0.3-2.9,0.6-6.1-1-8.6c-1.3-2.1-3.7-3.3-5.9-4.4c-3.7-1.8-7.5-3.6-11.6-4.2s-8.5,0-11.8,2.5
		c-5.1,4-5.9,11.4-10.1,16.3c-2,2.3-4.8,4-7.1,6c-2.3,2.1-4.3,4.9-4,8c0.4,5.1,6.4,8.1,7.5,13.1c0.9,3.9-1.4,7.8-3,11.5
		c-1.6,3.7-2.4,8.7,0.7,11.2"/>
	<path class="st18" d="M50.2,164.4c-2.8,1.1-5.9,2.2-8.8,1.3c-2.1-0.7-3.8-2.3-5.8-3.2c-2.4-1.1-5.3-1.1-7.6-2.4
		c-0.7-0.4-1.4-0.9-1.7-1.7c-0.4-1.1,0.1-2.2,0.4-3.3c0.9-3.2,0.2-6.9-2-9.5c-1.7-2.1-4.4-3.7-4.8-6.3"/>
	<path class="st18" d="M44.7,194c3.6,1.2,7.7-1.2,9.5-4.5s2-7.3,1.8-11.2"/>
	<path class="st18" d="M80.6,177.4c2.9,1.4,5,4.4,5.4,7.6c0.1,1.2,0,2.5,0.3,3.7c0.6,3.1,3.5,5.7,2.9,8.8"/>
	<path class="st18" d="M97.9,178c-0.2,2.1,0.4,4.2,1.7,5.8c2.8,3.5,8.3,4.5,10.2,8.6c0.8,1.9,0.7,4,0.9,6.1"/>
	<path class="st18" d="M93.8,124.7c2-4.7,4.7-9.1,6.8-13.8c0.9-2,1.6-4.1,3-5.8c3.3-4.1,9.2-4.9,14.5-5.4c1.4-0.1,2.9-0.3,4.2,0.2
		c3.2,1.1,4.3,5.2,4,8.6c-0.7,9.6-8,17.3-11.9,26.1"/>
	<path class="st18" d="M124.7,116c2.5-1.8,5-3.6,8-4.4c2.9-0.8,6.4-0.4,8.5,1.8c2.6,2.6,2.5,7,0.8,10.3c-1.7,3.3-4.5,5.7-7.2,8.2
		c-2.7,2.5-5.3,5.3-6.3,8.8"/>
	<path class="st18" d="M135.8,130.9c4.8-2.9,10.2-4.8,15.7-5.8c1.3-0.2,2.7-0.4,3.9,0.2c1.8,0.9,2.5,3.2,2.4,5.2
		c-0.2,6.5-5.8,11.3-10.5,15.8c-5.4,5.1-10.3,10.7-14.6,16.7c-0.9,1.3-1.8,2.7-2,4.2s0.7,3.4,2.3,3.7"/>
	<path class="st18" d="M116.9,148.8c-3.2,1.2-4.3,6.1-1.9,8.5c1.1,1.2,2.9,2,3.2,3.5c0.2,0.9-0.2,1.7-0.5,2.5"/>
	<path class="st18" d="M103.4,81.7c2.3-2.1,1.3-6.1-0.9-8.2c-2.3-2.1-5.3-3.2-7.9-5c-2.9-2.1-5-5.2-5.9-8.6"/>
	<path class="st18" d="M102.4,73.8c-2.4-1.5-3.4-4.9-2.7-7.6c0.8-2.8,3-5,5.6-6.3c1.3-0.6,2.8-1.1,4.1-1.8c2.2-1.3,3.7-3.6,4.1-6.1
		c0.2-1.7,0-3.4,0.3-5c0.4-2.3,1.3-4.1-0.6-5.5"/>
	<path class="st18" d="M195.5,156.1c-0.2-16.9-4.7-33.7-12.9-48.5c-1.2-2.2-2.5-4.4-2.9-6.8c-0.4-2.5,0.4-5.3,2.6-6.5
		c2.1-1.2,5.3-0.8,6.6-2.9"/>
	<path class="st18" d="M193.2,133.1c1.8-1.1,3.5-2.3,4.7-4s1.8-3.9,1.1-5.9c-0.3-0.8-0.8-1.6-1.2-2.4c-0.9-1.8-1.1-3.8-1.3-5.8
		c-0.1-0.9-0.2-1.8,0.1-2.6c0.9-2.3,4.1-2.6,5.8-4.4c1.7-1.7,1.8-4.5,1.4-7c-0.4-2.4-1-5-0.2-7.3"/>
	<path class="st18" d="M214.6,95.1c0.5,5.6,1.1,11.3,0.5,16.9s-2.2,11.3-5.6,15.8c-0.7,1-1.6,1.9-2.1,3c-1.3,2.5-0.9,5.5-0.2,8.1
		c0.8,2.7,2,5.2,2.5,7.9"/>
	<path class="st18" d="M211.5,125.1c-0.8,2,0.7,4.3,2.5,5.5c1.8,1.2,4,1.7,5.9,2.7c1.9,1,3.7,2.8,3.5,5c-0.1,1.3-0.9,2.5-0.9,3.8
		c0,1.6,1.3,2.8,2.2,4.1c2,2.8,2.6,6.6,1.7,9.9"/>
	<path class="st18" d="M198.4,80.6c-4.1-3.6-9.9-6.4-11-11.7c-0.5-2.2,0-4.5-0.4-6.7c-0.6-3.5-3.3-6.2-5.9-8.4
		c-4.9-4.1-10.8-7.5-17.1-7.5"/>
	<path class="st18" d="M187.1,64c1.5,0.3,2.9,1.3,4.3,1.9s3.3,0.7,4.5-0.4c0.9-0.9,1.1-2.2,1.6-3.3c1.1-2.3,3.7-3.5,6.2-3.4
		c2.5,0.1,4.8,1.4,6.7,3.1c0.8,0.8,1.6,1.6,2.6,2.2c3,1.7,6.8,0,9.9-1.7"/>
	<path class="st18" d="M237.5,138.9c-0.8-5.9-1.5-12.3,1.1-17.6c0.6-1.2,1.3-2.3,1.9-3.5c2.2-4.5,2-9.8,1.8-14.9
		c0-1.1-0.1-2.2-0.5-3.2c-0.5-1.4-1.6-2.5-2.6-3.6c-3.2-3.6-5.9-7.6-8.1-11.8"/>
	<path class="st18" d="M242.7,110.1c-0.7,6-1,13.1,3.7,16.9c1.7,1.4,4.1,2.3,5.2,4.2c1.7,2.9-0.1,6.6,0,10c0,3.3,2,6.6,5,8.1
		c1.1,0.6,2.3,0.9,3.3,1.5c3.5,2,4.7,6.8,3.7,10.8s-3.5,7.3-6,10.5"/>
	<path class="st18" d="M240.9,96.7c-1.8-3-3.6-6.5-2.4-9.8c1.3-3.7,5.8-5.1,8.2-8.2c2.6-3.4,2.1-8.8-1.2-11.7"/>
	<path class="st18" d="M248.3,127.8c-1-3.4,0.5-7.3,3.4-9.3c0.3-0.2,0.6-0.4,0.9-0.3c0.8,0,1.1,1.2,1.8,1.7c1.1,0.9,2.8-0.2,3.1-1.6
		c0.4-1.3,0-2.8,0.1-4.1c0.3-3.2,2.9-5.6,5.3-7.6c1.1-0.9,2.3-1.9,2.8-3.3c0.6-1.4,0.3-3.2-1-3.9"/>
	<path class="st18" d="M286.7,146c-3.1,0.4-5.6,2.7-7.2,5.4c-1.6,2.7-2.4,5.7-3.4,8.6c-1.7,4.6-4,9.1-7.5,12.5
		c-0.5,0.5-1.1,1.1-1.4,1.8c-0.3,0.6-0.2,1.4-0.1,2c0.4,2.7,2,5.2,4.3,6.7"/>
</g>
<path class="st17" d="M187.2,157.2c0-2.8-0.3-3.8-1.4-6.4c-3.6-8.6-8.2-16.7-12.7-24.9c-5.2-9.3-10.5-18.9-18.4-26.1
	c-3.7-3.4-7.1-8.3-10.1-12.5c-4.2-6-5.9-11.9-5.1-19.2c0.8-7.3,2.3-24.6,3.7-31.8"/>
<path class="st17" d="M65,151.6c-1.8-3.8-1.8-8.2-1.8-12.5c0.1-10,0.1-20,0.2-30c0-3.7,0.1-7.6,1.8-11c2.3-4.5,7.2-7.3,9.4-11.9
	c3.7-7.5-1.9-17.2-9.8-20.2"/>
<path class="st17" d="M129.1,187.4c-3.5-3.3-3.8-8.8-6.2-13c-3.6-6.3-11.8-9.1-14.8-15.7c-0.9-1.9-1.3-4.1-2.5-5.7
	c-1.9-2.5-5.3-3.3-8.5-3.1s-6.1,1.5-9.1,2.4c-4.7,1.4-9.7,2-14.6,1.8c-3.4-0.2-7.4-1.2-8.5-4.4"/>
</svg>
