<?xml version="1.0" encoding="utf-8"?>
<!-- Generator: Adobe Illustrator 21.1.0, SVG Export Plug-In . SVG Version: 6.00 Build 0)  -->
<svg version="1.1" id="Layer_1" xmlns="http://www.w3.org/2000/svg" xmlns:xlink="http://www.w3.org/1999/xlink" x="0px" y="0px"
	 viewBox="0 0 450 250" style="enable-background:new 0 0 450 250;" xml:space="preserve">
<style type="text/css">

	.st0{
		fill-dasharray: 800;
		fill-dashoffset: 0;
		-webkit-animation: dash 2s linear forwards;
		-o-animation: dash 2s linear forwards;
		-moz-animation: dash 2s linear forwards;
		animation: dash 2s linear forwards;
		fill:#FFC149;
		}

	@-webkit-keyframes dash {
		from {
			fill-dashoffset: 800;
		}
		to {
			fill-dashoffset: 0;
		}
	}

	.st1{fill:#F2669A;}
	.st2{fill:#00B5C2;}
	.st3{fill:#FF7E54;}
	.st4{fill:#EA4242;}
</style>

<g id="XMLID_4_">
	<g>
		<path class="st0" d="M412.369,142.695v2.013h-0.102C412.308,144.037,412.369,143.387,412.369,142.695z"/>
		<path class="st1" d="M412.369,142.695c0,0.691-0.061,1.342-0.102,2.013h-34.444v-2.115V96.458V57.744V55.65h34.444
			c0.041,0.59,0.081,1.2,0.102,1.81v0.529v84.179c0,0.061,0,0.122,0,0.183V142.695z"/>
		<path class="st0" d="M412.369,55.65v1.81c-0.02-0.61-0.061-1.22-0.102-1.81H412.369z"/>
		<path class="st1" d="M377.824,55.65v2.094c0-2.379-1.952-4.311-4.331-4.311V18.928c20.74,0,37.636,16.246,38.775,36.721H377.824z"
			/>
		<path class="st0" d="M373.493,53.474h-0.549c0.183-0.02,0.366-0.041,0.549-0.041V53.474z"/>
		<path class="st1" d="M377.824,144.708h34.444c-1.139,20.455-18.035,36.701-38.775,36.701c-20.74,0-37.636-16.246-38.775-36.701
			h34.465v-2.115c0,2.399,1.932,4.331,4.311,4.331c2.379,0,4.331-1.932,4.331-4.331V144.708z"/>
		<path class="st1" d="M340.675,53.474h32.269c-2.135,0.285-3.762,2.074-3.762,4.27v38.714v7.442c-0.02,0-0.02,0-0.02,0V55.629
			h-28.487V53.474z"/>
		<path class="st1" d="M369.162,103.9c0,0,0,0,0.02,0v38.694v2.115h-34.465c-0.041-0.61-0.081-1.22-0.102-1.83V63.112h6.059v-7.483
			h28.487V103.9z"/>
		<path class="st1" d="M340.675,55.629h-5.958c1.139-20.455,18.035-36.701,38.775-36.701v34.505c-0.183,0-0.366,0.02-0.549,0.041
			h-32.269V55.629z"/>
		<path class="st1" d="M334.718,55.629h5.958v7.483h-6.059v-4.941c0-0.061,0-0.122,0-0.183v-0.346
			C334.616,56.971,334.677,56.3,334.718,55.629z"/>
		<path class="st0" d="M334.616,142.878c0.02,0.61,0.061,1.22,0.102,1.83h-0.102V142.878z"/>
		<path class="st0" d="M334.616,55.629h0.102c-0.041,0.671-0.102,1.342-0.102,2.013V55.629z"/>
		<polygon class="st2" points="325.974,57.785 325.974,57.805 325.974,63.112 321.399,63.112 321.399,53.474 325.974,53.474 		"/>
		<path class="st2" d="M325.974,63.112v100.893c-0.081-9.496-7.788-17.161-17.283-17.161c-9.496,0-17.202,7.666-17.283,17.161
			V60.163h5.612v-6.69h24.379v9.638H325.974z"/>
		<path class="st2" d="M291.408,164.126h34.566c0,9.536-7.747,17.283-17.283,17.283S291.408,173.663,291.408,164.126z"/>
		<path class="st2" d="M308.691,146.843c9.496,0,17.202,7.666,17.283,17.161v0.122h-34.566v-0.122
			C291.49,154.509,299.196,146.843,308.691,146.843z"/>
		<rect x="291.408" y="53.474" class="st2" width="5.612" height="6.69"/>
		<path class="st2" d="M373.493,18.928c-20.74,0-37.636,16.246-38.775,36.701h-0.102v2.013c-0.081-2.318-2.013-4.168-4.331-4.168
			c-2.379,0-4.311,1.932-4.311,4.311v-4.311h-4.575H297.02h-5.612v6.69h-0.02v-2.42c0-2.379-1.952-4.311-4.331-4.311
			c-2.216,0-4.026,1.688-4.27,3.843v-9.252h-1.301c-4.351-16.734-19.499-29.097-37.596-29.097H373.493z"/>
		<path class="st0" d="M282.787,57.276v0.468c0-0.102-0.02-0.183-0.02-0.285C282.767,57.398,282.787,57.337,282.787,57.276z"/>
		<path class="st2" d="M282.767,57.459c-0.041-3.253-0.488-6.405-1.281-9.435h1.301v9.252
			C282.787,57.337,282.767,57.398,282.767,57.459z"/>
		<path class="st0" d="M239.579,66.446c0,2.379,1.932,4.311,4.311,4.311s4.311-1.932,4.331-4.311v-8.642
			c0-2.399-1.932-4.331-4.331-4.331c-2.379,0-4.311,1.932-4.311,4.331V66.446z M282.767,61.566v102.377
			c-0.081-9.455-7.788-17.1-17.263-17.1c-9.516,0-17.242,7.706-17.283,17.222V108.82c0-2.399-1.932-4.331-4.331-4.331
			c-2.379,0-4.311,1.932-4.311,4.331v35.888h-0.02v-1.83h-0.142c-0.915-18.666-15.758-33.651-34.383-34.77V58.171
			c0-0.122-0.02-0.224-0.02-0.346c0-10.736,4.351-20.475,11.387-27.511s16.754-11.387,27.49-11.387l4.717,32.37l28.792,1.993v8.276
			H282.767z"/>
		<path class="st0" d="M248.221,164.126h34.546v-0.183c0,0.061,0.02,0.122,0.02,0.183c0,9.536-7.747,17.283-17.283,17.283
			C255.968,181.409,248.221,173.663,248.221,164.126z"/>
		<path class="st0" d="M282.746,57.744v2.42h-2.643v-6.69l-2.704-0.183v-5.266h4.087c0.793,3.03,1.24,6.181,1.281,9.435
			C282.767,57.561,282.746,57.642,282.746,57.744z"/>
		<path class="st0" d="M282.746,60.163v-2.42c0-0.102,0.02-0.183,0.02-0.285c0,0.102,0.02,0.183,0.02,0.285c0,0.02,0,0.061,0,0.081
			c0,0.061-0.02,0.102-0.02,0.163v3.579h-5.368v-8.276l2.704,0.183v6.69H282.746z"/>
		<path class="st0" d="M243.89,18.928c18.096,0,33.245,12.362,37.596,29.097h-4.087v5.266l-28.792-1.993L243.89,18.928z"/>
		<path class="st0" d="M265.504,146.843c9.475,0,17.181,7.645,17.263,17.1v0.183h-34.546v-0.061
			C248.261,154.549,255.988,146.843,265.504,146.843z"/>
		<path class="st0" d="M239.417,142.878h0.142v1.83h-0.061C239.498,144.098,239.457,143.488,239.417,142.878z"/>
		<path class="st0" d="M205.033,144.708h34.464c0,20.252-16.388,36.66-36.64,36.701v-34.525
			C204.057,146.884,205.033,145.908,205.033,144.708z"/>
		<path class="st0" d="M239.417,142.878c0.041,0.61,0.081,1.22,0.081,1.83h-34.464v-1.83H239.417z"/>
		<path class="st0" d="M205.033,108.109c18.625,1.118,33.468,16.104,34.383,34.77h-34.383V108.109z"/>
		<path class="st3" d="M200.702,144.708c0,1.2,0.976,2.155,2.155,2.176v34.525c-0.02,0-0.041,0-0.061,0
			c-20.272,0-36.701-16.429-36.701-36.701c0-0.488,0.041-0.956,0.061-1.423v1.423H200.702z"/>
		<path class="st3" d="M161.826,18.928c21.472,0,38.897,17.405,38.897,38.897c0,0.061-0.02,0.102-0.02,0.163v50.121
			c-18.828,1.057-33.814,16.266-34.546,35.176V96.458V57.744c0-2.379-1.932-4.311-4.331-4.311c-2.379,0-4.311,1.932-4.311,4.311
			v38.714v48.25c0-9.78-3.823-18.645-10.045-25.213c-6.242-6.568-14.884-10.838-24.501-11.386V58.171c0-0.122-0.02-0.224-0.02-0.346
			C122.949,36.333,140.354,18.928,161.826,18.928z"/>
		<path class="st3" d="M200.702,108.109v36.599h-34.546v-1.423C166.889,124.375,181.874,109.166,200.702,108.109z"/>
		<path class="st3" d="M122.969,108.109c9.618,0.549,18.259,4.819,24.501,11.386c6.222,6.568,10.045,15.433,10.045,25.213h-34.546
			v-0.02V108.109z"/>
		<path class="st3" d="M120.794,146.843c9.557,0,17.283,7.747,17.283,17.283c0,4.778-1.932,9.109-5.063,12.22
			c-2.908,2.928-6.913,4.819-11.326,5.043c-0.305,0.02-0.59,0.02-0.895,0.02V146.843z"/>
		<path class="st3" d="M122.969,144.708h34.546c0,10.146-4.107,19.316-10.756,25.945c-6.446,6.446-15.29,10.512-25.071,10.736
			c4.412-0.224,8.418-2.115,11.326-5.043c3.131-3.111,5.063-7.442,5.063-12.22c0-9.536-7.727-17.283-17.283-17.283
			C121.993,146.843,122.929,145.908,122.969,144.708z"/>
		<path class="st4" d="M103.511,164.126c0-9.536,7.747-17.283,17.283-17.283v34.566c-0.305,0-0.59,0-0.895-0.02
			C110.79,180.921,103.511,173.358,103.511,164.126z"/>
		<path class="st4" d="M118.638,142.878H84.174c0.915-18.686,15.799-33.692,34.465-34.77V142.878z"/>
		<path class="st4" d="M120.794,146.843c-9.536,0-17.283,7.747-17.283,17.283c0,9.231,7.279,16.795,16.388,17.263
			c-19.865-0.468-35.806-16.714-35.806-36.681c0-0.02,0-0.02,0-0.02h34.546C118.638,145.867,119.614,146.843,120.794,146.843z"/>
		<path class="st4" d="M84.093,142.878V108.82c0-2.399-1.952-4.331-4.331-4.331s-4.311,1.932-4.311,4.331v55.957H75.41
			c-0.346,9.231-7.93,16.632-17.242,16.632c-9.333,0-16.917-7.401-17.263-16.632h-0.02v-0.285c0-0.122,0-0.244,0-0.366
			c0-0.122,0-0.244,0-0.346V58.171c0-0.122,0-0.224,0-0.346c0-21.492,17.405-38.897,38.877-38.897s38.897,17.405,38.897,38.897
			c0,0.061-0.02,0.102-0.02,0.163v50.121c-18.666,1.078-33.55,16.083-34.465,34.77H84.093z M75.512,66.446
			c0,2.379,1.932,4.311,4.311,4.311c1.2,0,2.257-0.488,3.05-1.261c0.793-0.773,1.281-1.871,1.281-3.05v-8.642
			c0-2.399-1.952-4.331-4.331-4.331c-2.379,0-4.311,1.932-4.311,4.331V66.446z"/>
		<path class="st0" d="M84.174,142.878c-0.02,0.61-0.081,1.2-0.081,1.81v-1.81H84.174z"/>
		<path class="st4" d="M84.093,144.688c0-0.61,0.061-1.2,0.081-1.81h34.465v1.81H84.093z"/>
	</g>
	<g>
	</g>
</g>
<path class="st3" d="M48.417,223.158l-1.966,5.402h-5.243l9.015-22.92h5.226l9.014,22.92h-5.243l-1.966-5.402H48.417z
	 M52.844,211.379l-2.797,7.528h5.578L52.844,211.379z"/>
<path class="st3" d="M101.417,223.158l-1.966,5.402h-5.243l9.015-22.92h5.226l9.014,22.92h-5.243l-1.966-5.402H101.417z
	 M105.844,211.379l-2.797,7.528h5.578L105.844,211.379z"/>
<path class="st3" d="M88.165,205.641v22.92h-4.251L72.63,214v14.56h-4.923v-22.92h4.268l11.285,14.577v-14.577H88.165z"/>
<path class="st3" d="M92.323,301.662c2.403-2.333,5.35-3.5,8.839-3.5c3.489,0,6.436,1.167,8.838,3.5
	c2.403,2.334,3.604,5.147,3.604,8.439c0,3.293-1.201,6.108-3.604,8.447c-2.402,2.339-5.349,3.508-8.838,3.508
	c-3.489,0-6.436-1.169-8.839-3.508c-2.402-2.339-3.604-5.154-3.604-8.447C88.719,306.808,89.92,303.995,92.323,301.662z
	 M95.943,315.455c1.428,1.449,3.167,2.174,5.219,2.174c2.051,0,3.791-0.725,5.219-2.174c1.427-1.449,2.141-3.231,2.141-5.346
	c0-2.115-0.714-3.9-2.141-5.354c-1.428-1.454-3.168-2.182-5.219-2.182c-2.052,0-3.791,0.727-5.219,2.182
	c-1.427,1.454-2.141,3.239-2.141,5.354C93.802,312.224,94.516,314.006,95.943,315.455z"/>
<path class="st3" d="M136.559,205.641v4.427h-6.537v18.492h-4.907v-18.492h-6.553v-4.427H136.559z"/>
<path class="st3" d="M141.124,208.662c2.403-2.333,5.35-3.5,8.839-3.5c3.489,0,6.436,1.167,8.838,3.5
	c2.403,2.334,3.604,5.147,3.604,8.439c0,3.293-1.201,6.108-3.604,8.447c-2.402,2.339-5.349,3.508-8.838,3.508
	c-3.489,0-6.436-1.169-8.839-3.508c-2.402-2.339-3.604-5.154-3.604-8.447C137.52,213.808,138.722,210.995,141.124,208.662z
	 M144.745,222.455c1.428,1.449,3.167,2.174,5.219,2.174c2.051,0,3.791-0.725,5.219-2.174c1.427-1.449,2.141-3.231,2.141-5.346
	c0-2.115-0.714-3.9-2.141-5.354c-1.428-1.454-3.168-2.182-5.219-2.182c-2.052,0-3.791,0.727-5.219,2.182
	c-1.427,1.454-2.141,3.239-2.141,5.354C142.603,219.224,143.317,221.006,144.745,222.455z"/>
<path class="st3" d="M187.161,205.641h4.347v22.92h-4.906v-15.28l-7.369,9.382l-7.352-9.318v15.216h-4.923v-22.92h4.427l7.848,9.989
	L187.161,205.641z"/>
<path class="st3" d="M205.392,215.471l5.402-9.83h5.243l-8.183,14.736v8.183h-4.923v-8.183l-8.183-14.736h5.243L205.392,215.471z"/>
<path class="st3" d="M242.997,225.124l0.814-0.16v3.756c-0.543,0.33-1.193,0.495-1.949,0.495c-0.725,0-1.431-0.192-2.118-0.575
	c-0.686-0.384-1.196-0.762-1.526-1.135l-0.447-0.575c-0.149,0.171-0.368,0.381-0.656,0.631c-0.288,0.25-0.927,0.589-1.918,1.015
	c-0.991,0.426-2.046,0.639-3.164,0.639c-2.142,0-3.877-0.589-5.203-1.766c-1.327-1.177-1.99-2.608-1.99-4.291
	c0-0.788,0.146-1.558,0.44-2.309c0.293-0.751,0.647-1.383,1.063-1.894c0.415-0.511,0.831-0.964,1.247-1.359
	c0.415-0.394,0.772-0.687,1.071-0.879l0.431-0.272c-0.213-0.213-0.485-0.511-0.814-0.895c-0.331-0.384-0.768-1.076-1.311-2.078
	c-0.544-1.002-0.815-1.918-0.815-2.749c0-1.566,0.583-2.914,1.75-4.044c1.166-1.129,2.597-1.694,4.291-1.694
	c1.769,0,3.221,0.535,4.356,1.606c1.135,1.071,1.702,2.395,1.702,3.972c0,0.607-0.13,1.228-0.391,1.862
	c-0.261,0.634-0.571,1.18-0.927,1.638c-0.357,0.458-0.722,0.871-1.095,1.239c-0.373,0.368-0.693,0.653-0.959,0.855l-0.384,0.288
	l3.437,4.251c0.65-0.98,0.975-2.126,0.975-3.436h4.092c0,1.161-0.163,2.288-0.488,3.38c-0.325,1.092-0.653,1.899-0.983,2.421
	l-0.496,0.751C241.574,224.688,242.229,225.124,242.997,225.124z M233.894,224.957c0.549-0.218,0.946-0.434,1.191-0.647l0.383-0.336
	l-3.932-4.747c-0.17,0.128-0.38,0.304-0.631,0.527c-0.25,0.224-0.589,0.645-1.015,1.263c-0.426,0.618-0.639,1.225-0.639,1.822
	c0,0.767,0.25,1.367,0.75,1.798c0.501,0.432,1.231,0.647,2.19,0.647C232.778,225.284,233.345,225.175,233.894,224.957z
	 M233.606,209.477c-0.367-0.373-0.838-0.559-1.414-0.559c-0.65,0-1.167,0.181-1.551,0.543c-0.383,0.362-0.576,0.836-0.576,1.423
	c0,0.437,0.182,0.927,0.544,1.47c0.362,0.543,0.719,0.98,1.071,1.311l0.511,0.495c0.149-0.128,0.336-0.306,0.559-0.535
	c0.224-0.229,0.514-0.634,0.871-1.215c0.358-0.581,0.535-1.089,0.535-1.526C234.158,210.319,233.974,209.85,233.606,209.477z"/>
<path class="st3" d="M251.8,205.641h5.243l5.882,17.022l5.898-17.022h5.243l-8.519,22.92h-5.243L251.8,205.641z"/>
<path class="st3" d="M277.628,205.641h4.923v22.92h-4.923V205.641z"/>
<path class="st3" d="M304.121,205.641v4.427h-6.537v18.492h-4.907v-18.492h-6.553v-4.427H304.121z"/>
<path class="st3" d="M310.326,223.158l-1.966,5.402h-5.243l9.015-22.92h5.226l9.014,22.92h-5.243l-1.966-5.402H310.326z
	 M314.754,211.379l-2.797,7.528h5.578L314.754,211.379z"/>
<path class="st3" d="M349.819,205.641h4.347v22.92h-4.906v-15.28l-7.369,9.382l-7.352-9.318v15.216h-4.923v-22.92h4.427l7.848,9.989
	L349.819,205.641z"/>
<path class="st3" d="M360.028,205.641h4.923v22.92h-4.923V205.641z"/>
<path class="st3" d="M391.267,205.641v22.92h-4.251L375.732,214v14.56h-4.923v-22.92h4.268l11.285,14.577v-14.577H391.267z"/>
<path class="st3" d="M405.961,219.994c-0.772-0.469-1.715-0.86-2.829-1.175c-1.114-0.314-2.222-0.685-3.324-1.111
	c-1.103-0.426-2.044-1.13-2.821-2.11c-0.778-0.98-1.167-2.222-1.167-3.724c0-1.854,0.744-3.436,2.23-4.747
	c1.486-1.311,3.418-1.966,5.793-1.966c0.938,0,1.843,0.109,2.717,0.328c0.874,0.218,1.591,0.474,2.15,0.767
	c0.559,0.293,1.05,0.591,1.47,0.895c0.421,0.304,0.722,0.567,0.903,0.791l0.288,0.32l-2.942,3.117
	c-0.127-0.149-0.306-0.333-0.535-0.551c-0.228-0.218-0.711-0.509-1.446-0.871c-0.735-0.362-1.491-0.543-2.27-0.543
	c-0.938,0-1.691,0.24-2.262,0.719c-0.57,0.48-0.855,1.06-0.855,1.742c0,0.767,0.386,1.382,1.159,1.846
	c0.772,0.464,1.71,0.855,2.814,1.175c1.102,0.32,2.21,0.693,3.324,1.119c1.114,0.426,2.059,1.13,2.837,2.11
	c0.777,0.98,1.166,2.222,1.166,3.724c0,2.12-0.77,3.852-2.31,5.195c-1.539,1.343-3.662,2.014-6.369,2.014
	c-1.066,0-2.096-0.13-3.093-0.392c-0.996-0.261-1.816-0.573-2.462-0.935c-0.644-0.362-1.212-0.73-1.702-1.103
	c-0.49-0.373-0.842-0.687-1.055-0.943l-0.367-0.4l2.957-2.941c0.149,0.171,0.359,0.392,0.631,0.663
	c0.272,0.272,0.877,0.637,1.814,1.095c0.937,0.458,1.918,0.687,2.941,0.687c1.183,0,2.107-0.277,2.773-0.831
	c0.665-0.554,0.998-1.257,0.998-2.11C407.12,221.081,406.734,220.463,405.961,219.994z"/>
</svg>
