<?xml version="1.0" encoding="utf-8"?>
<!-- Generator: Adobe Illustrator 21.1.0, SVG Export Plug-In . SVG Version: 6.00 Build 0)  -->
<svg version="1.1" id="Layer_1" xmlns="http://www.w3.org/2000/svg" xmlns:xlink="http://www.w3.org/1999/xlink" x="0px" y="0px"
	 viewBox="0 0 100 100" style="enable-background:new 0 0 100 100;" xml:space="preserve">
<style type="text/css">
	.st0{fill:none;stroke:#ED1C24;stroke-width:3;stroke-miterlimit:10;}
	.st1{fill:#EF4136;stroke:#BE1E2D;stroke-width:3;stroke-miterlimit:10;}
	.st2{fill:none;stroke:#BE1E2D;stroke-width:3;stroke-miterlimit:10;}
	.st3{fill:#FFFFFF;}
	.st4{fill:none;stroke:#BE1E2D;stroke-width:2;stroke-linecap:round;stroke-miterlimit:10;}
	.st5{fill:none;stroke:#BE1E2D;stroke-width:2;stroke-miterlimit:10;}
</style>
<circle class="st0" cx="50" cy="50" r="47.5"/>
<circle class="st1" cx="50" cy="50" r="39.5"/>
<path class="st2" d="M71,47.2L47.1,71.2c-4.9,4.9-13,4.9-17.9,0l0,0c-4.9-4.9-4.9-13,0-17.9l23.9-23.9c4.9-4.9,13-4.9,17.9,0l0,0
	C76,34.2,76,42.3,71,47.2z"/>
<g>
	<path class="st3" d="M22.3,40.4c-0.3-0.1-0.5-0.3-0.7-0.7c-0.1-0.3-0.1-0.6,0-0.9l1.3-3.1v0l3.8-9.1c0,0,0-0.1,0.1-0.1l0-0.1
		c0,0,0,0,0-0.1c0,0,0,0,0-0.1c0,0,0,0,0,0c0,0,0,0,0,0c0,0,0,0,0-0.1c0,0,0,0,0,0c0,0,0,0,0.1,0c0,0,0,0,0,0c0,0,0,0,0.1,0l0,0
		c0,0,0.1,0,0.1,0c0,0,0,0,0.1,0c0,0,0,0,0,0s0,0,0,0c0,0,0.1,0,0.1,0c0,0,0,0,0.1,0l0,0c0,0,0,0,0.1,0l0.1,0c0,0,0,0,0.1,0
		c0,0,0,0,0.1,0c0,0,0,0,0.1,0H28l0.1,0l0.1,0c0,0,0,0,0.1,0c0,0,0.1,0,0,0c0.1,0,0.2,0.1,0.2,0.1c0,0,0,0,0,0s0.1,0,0.1,0l0,0
		c0,0,0,0,0.1,0c0,0,0,0,0,0s0,0,0.1,0c0,0,0,0,0,0c0,0,0,0,0,0.1l0,0c0,0,0,0,0,0.1s0,0,0,0.1s0,0,0,0.1c0,0,0,0.1,0.1,0.1l3.8,9.1
		v0l1.3,3.1c0.1,0.3,0.1,0.6,0,0.9c-0.1,0.3-0.3,0.5-0.7,0.7c-0.2,0.1-0.3,0.1-0.5,0.1c-0.5,0-0.9-0.2-1.1-0.7l-1-2.4h-5.9l-1,2.4
		c-0.2,0.5-0.6,0.7-1.1,0.7c-0.2,0-0.2,0-0.2,0S22.5,40.5,22.3,40.4z M29.9,35l-2-4.8l-2,4.8H29.9z"/>
</g>
<path class="st4" d="M56.1,34.8c2.4-2.3,6.1-2.4,8.6-0.4c2.4,1.9,3.1,5.4,1.6,8.2"/>
<path class="st5" d="M33,64.8c-0.2-0.1-1.8-0.9-2.2-2.8c-0.5-2.2,1.1-3.7,1.2-3.8l7.8-8"/>
<circle class="st4" cx="41.5" cy="48.5" r="0.5"/>
<line class="st2" x1="59" y1="57" x2="43" y2="41"/>
</svg>
