<?xml version="1.0" encoding="utf-8"?>
<!-- Generator: Adobe Illustrator 21.1.0, SVG Export Plug-In . SVG Version: 6.00 Build 0)  -->
<svg version="1.1" id="Layer_1" xmlns="http://www.w3.org/2000/svg" xmlns:xlink="http://www.w3.org/1999/xlink" x="0px" y="0px"
	 viewBox="0 0 100 100" style="enable-background:new 0 0 100 100;" xml:space="preserve">
<style type="text/css">
	.st0{fill:none;stroke:#F7941E;stroke-width:3;stroke-miterlimit:10;}
	.st1{fill:#F7941E;stroke:#F15A29;stroke-width:3;stroke-miterlimit:10;}
	.st2{fill:#F7941E;stroke:#EF4136;stroke-width:3;stroke-miterlimit:10;}
	.st3{fill:#FFFFFF;}
	.st4{fill:none;stroke:#ED1C24;stroke-width:2;stroke-linecap:round;stroke-miterlimit:10;}
	.st5{fill:none;stroke:#ED1C24;stroke-width:2;stroke-miterlimit:10;}
</style>
<circle class="st0" cx="50" cy="50" r="47.5"/>
<circle class="st1" cx="50" cy="50" r="39.5"/>
<path class="st2" d="M71,47.2L47.1,71.2c-4.9,4.9-13,4.9-17.9,0l0,0c-4.9-4.9-4.9-13,0-17.9l23.9-23.9c4.9-4.9,13-4.9,17.9,0l0,0
	C76,34.2,76,42.3,71,47.2z"/>
<g>
	<path class="st3" d="M22.4,39.5c-0.3,0-0.5-0.1-0.7-0.3c-0.2-0.2-0.3-0.4-0.3-0.7V28c0-0.3,0.1-0.5,0.3-0.7
		c0.2-0.2,0.4-0.3,0.7-0.3l3.7,0c1.1,0,2,0.4,2.8,1.1c0.8,0.7,1.1,1.6,1.1,2.6c0,1-0.4,1.8-1.1,2.6c0.9,0.7,1.3,1.6,1.3,2.7
		c0,1-0.4,1.9-1.2,2.6c-0.8,0.7-1.7,1.1-2.8,1.1H22.4z M23.4,32.2h2.7c0.5,0,0.9-0.2,1.3-0.5c0.4-0.3,0.5-0.7,0.5-1.2
		c0-0.4-0.2-0.8-0.5-1.1C27,29.1,26.6,29,26.1,29l-2.7,0V32.2z M23.4,37.4h2.9c0.5,0,1-0.2,1.3-0.5c0.4-0.3,0.5-0.7,0.5-1.1
		c0-0.4-0.2-0.8-0.5-1.1c-0.4-0.3-0.8-0.5-1.3-0.5c0,0-0.1,0-0.1,0c0,0-0.1,0-0.1,0h-2.7V37.4z"/>
</g>
<path class="st4" d="M56.1,34.8c2.4-2.3,6.1-2.4,8.6-0.4c2.4,1.9,3.1,5.4,1.6,8.2"/>
<path class="st5" d="M33,64.8c-0.2-0.1-1.8-0.9-2.2-2.8c-0.5-2.2,1.1-3.7,1.2-3.8l7.8-8"/>
<circle class="st4" cx="41.5" cy="48.5" r="0.5"/>
<line class="st4" x1="58" y1="58" x2="42" y2="42"/>
<g>
	<path class="st3" d="M32.7,34.1c-0.2,0.1-0.4,0.1-0.6,0c-0.2-0.1-0.3-0.2-0.4-0.5c-0.1-0.2-0.1-0.4,0-0.6c0.1-0.2,0.2-0.3,0.5-0.4
		l2.1-0.8c0.3-0.1,0.5-0.1,0.7,0.1s0.3,0.4,0.3,0.7v8.2c0,0.2-0.1,0.4-0.2,0.6c-0.2,0.2-0.4,0.2-0.6,0.2s-0.4-0.1-0.6-0.2
		c-0.2-0.2-0.2-0.3-0.2-0.6v-7L32.7,34.1z"/>
</g>
</svg>
