<?xml version="1.0" encoding="utf-8"?>
<!-- Generator: Adobe Illustrator 21.1.0, SVG Export Plug-In . SVG Version: 6.00 Build 0)  -->
<svg version="1.1" id="Layer_1" xmlns="http://www.w3.org/2000/svg" xmlns:xlink="http://www.w3.org/1999/xlink" x="0px" y="0px"
	 viewBox="0 0 100 100" style="enable-background:new 0 0 100 100;" xml:space="preserve">
<style type="text/css">
	.st0{fill:none;stroke:#B266D9;stroke-width:3;stroke-miterlimit:10;}
	.st1{fill:#8557A7;stroke:#662D91;stroke-width:3;stroke-miterlimit:10;}
	.st2{fill:none;stroke:#662D91;stroke-width:3;stroke-miterlimit:10;}
	.st3{fill:#FFFFFF;}
	.st4{fill:none;stroke:#662D91;stroke-width:2;stroke-linecap:round;stroke-miterlimit:10;}
	.st5{fill:none;stroke:#662D91;stroke-width:2;stroke-miterlimit:10;}
</style>
<circle class="st0" cx="50" cy="50" r="47.5"/>
<circle class="st1" cx="50" cy="50" r="39.5"/>
<path class="st2" d="M71,47.2L47.1,71.2c-4.9,4.9-13,4.9-17.9,0l0,0c-4.9-4.9-4.9-13,0-17.9l23.9-23.9c4.9-4.9,13-4.9,17.9,0l0,0
	C76,34.2,76,42.3,71,47.2z"/>
<g>
	<path class="st3" d="M23.7,40.5c-0.3,0-0.6-0.1-0.9-0.3c-0.2-0.2-0.4-0.5-0.4-0.9V27c0-0.3,0.1-0.6,0.4-0.9
		c0.2-0.2,0.5-0.3,0.9-0.3h3.1c2,0,3.8,0.7,5.2,2.1c1.4,1.4,2.1,3.2,2.1,5.2c0,2-0.7,3.7-2.1,5.2c-1.4,1.4-3.2,2.2-5.2,2.2
		L23.7,40.5L23.7,40.5z M24.9,38.1l1.9,0c1.4,0,2.5-0.5,3.5-1.4s1.4-2.1,1.4-3.5c0-1.3-0.5-2.5-1.4-3.5c-1-1-2.1-1.4-3.5-1.4h-1.9
		V38.1z"/>
</g>
<path class="st4" d="M56.1,34.8c2.4-2.3,6.1-2.4,8.6-0.4c2.4,1.9,3.1,5.4,1.6,8.2"/>
<path class="st4" d="M33,64.8c-0.2-0.1-1.8-0.9-2.2-2.8c-0.5-2.2,1.1-3.7,1.2-3.8l7.8-8"/>
<circle class="st5" cx="42.5" cy="47.5" r="0.5"/>
<line class="st2" x1="58" y1="58" x2="42.5" y2="41.5"/>
</svg>
