<?xml version="1.0" encoding="utf-8"?>
<!-- Generator: Adobe Illustrator 21.1.0, SVG Export Plug-In . SVG Version: 6.00 Build 0)  -->
<svg version="1.1" id="Layer_1" xmlns="http://www.w3.org/2000/svg" xmlns:xlink="http://www.w3.org/1999/xlink" x="0px" y="0px"
	 viewBox="0 0 100 100" style="enable-background:new 0 0 100 100;" xml:space="preserve">
<style type="text/css">
	.st0{fill:none;stroke:#725BFF;stroke-width:3;stroke-miterlimit:10;}
	.st1{fill:#4F32FF;stroke:#2E3192;stroke-width:3;stroke-miterlimit:10;}
	.st2{fill:none;stroke:#2811B2;stroke-width:3;stroke-miterlimit:10;}
	.st3{fill:#FFFFFF;}
	.st4{fill:none;stroke:#2811B2;stroke-width:2;stroke-linecap:round;stroke-miterlimit:10;}
	.st5{fill:none;stroke:#2811B2;stroke-width:2;stroke-linecap:round;stroke-linejoin:round;stroke-miterlimit:10;}
	.st6{fill:none;stroke:#2811B2;stroke-width:2;stroke-miterlimit:10;}
</style>
<circle class="st0" cx="50" cy="50" r="47.5"/>
<circle class="st1" cx="50" cy="50" r="39.5"/>
<path class="st2" d="M71,47.2L47.1,71.2c-4.9,4.9-13,4.9-17.9,0l0,0c-4.9-4.9-4.9-13,0-17.9l23.9-23.9c4.9-4.9,13-4.9,17.9,0l0,0
	C76,34.2,76,42.3,71,47.2z"/>
<g>
	<path class="st3" d="M29,40.5c-2,0-3.7-0.7-5.2-2.1c-1.4-1.4-2.1-3.2-2.1-5.2c0-2,0.7-3.7,2.1-5.2c1.4-1.4,3.2-2.2,5.2-2.2
		c1.7,0,3.2,0.5,4.5,1.5c0.3,0.2,0.4,0.5,0.5,0.8c0,0.3,0,0.6-0.2,0.9s-0.5,0.4-0.8,0.5c-0.3,0-0.6,0-0.9-0.2c-0.9-0.7-1.9-1-3-1
		c-1.3,0-2.5,0.5-3.5,1.4s-1.4,2.1-1.4,3.5c0,1.3,0.5,2.5,1.4,3.5s2.1,1.4,3.5,1.4c1.3,0,2.4-0.4,3.3-1.3c0.2-0.2,0.5-0.3,0.9-0.3
		s0.6,0.1,0.8,0.4c0.2,0.2,0.3,0.5,0.3,0.9s-0.1,0.6-0.4,0.8C32.6,39.9,30.9,40.5,29,40.5z"/>
</g>
<path class="st4" d="M56.1,34.8c2.4-2.3,6.1-2.4,8.6-0.4c2.4,1.9,3.1,5.4,1.6,8.2"/>
<path class="st5" d="M33,64.8c-0.2-0.1-1.8-0.9-2.2-2.8c-0.5-2.2,1.1-3.7,1.2-3.8l7.8-8"/>
<circle class="st6" cx="42.5" cy="47.5" r="0.5"/>
<line class="st2" x1="59" y1="58" x2="43" y2="42"/>
</svg>
