<?xml version="1.0" encoding="utf-8"?>
<!-- Generator: Adobe Illustrator 21.1.0, SVG Export Plug-In . SVG Version: 6.00 Build 0)  -->
<svg version="1.1" id="Layer_1" xmlns="http://www.w3.org/2000/svg" xmlns:xlink="http://www.w3.org/1999/xlink" x="0px" y="0px"
	 viewBox="0 0 100 100" style="enable-background:new 0 0 100 100;" xml:space="preserve">
<style type="text/css">
	.st0{fill:none;stroke:#00AEEF;stroke-width:3;stroke-miterlimit:10;}
	.st1{fill:#00AEEF;stroke:#1C75BC;stroke-width:3;stroke-miterlimit:10;}
	.st2{fill:#FFFFFF;}
	.st3{fill:none;stroke:#1C75BC;stroke-width:2;stroke-linecap:round;stroke-miterlimit:10;}
	.st4{fill:none;stroke:#1C75BC;stroke-width:2;stroke-miterlimit:10;}
	.st5{fill:#00A79D;stroke:#1C75BC;stroke-width:3;stroke-miterlimit:10;}
</style>
<circle class="st0" cx="50" cy="50" r="47.5"/>
<circle class="st1" cx="50" cy="50" r="39.5"/>
<path class="st1" d="M75.5,51.7L51.6,75.7c-4.9,4.9-13,4.9-17.9,0l0,0c-4.9-4.9-4.9-13,0-17.9l23.9-23.9c4.9-4.9,13-4.9,17.9,0l0,0
	C80.5,38.7,80.5,46.8,75.5,51.7z"/>
<g>
	<path class="st2" d="M22.7,42.5c-0.3,0-0.6-0.1-0.9-0.4c-0.2-0.2-0.4-0.5-0.4-0.9V29c0-0.3,0.1-0.6,0.3-0.9
		c0.2-0.2,0.5-0.4,0.9-0.4l4.3,0c1.3,0,2.4,0.4,3.3,1.2c0.9,0.8,1.3,1.8,1.3,3c0,1.1-0.4,2.1-1.3,3c1,0.8,1.5,1.9,1.5,3.2
		c0,1.2-0.5,2.2-1.4,3c-0.9,0.8-2,1.3-3.2,1.3H22.7z M23.9,34H27c0.6,0,1.1-0.2,1.5-0.6c0.4-0.4,0.6-0.8,0.6-1.4
		c0-0.5-0.2-0.9-0.6-1.3c-0.4-0.4-0.9-0.5-1.5-0.5l-3.1,0V34z M23.9,40.1h3.3c0.6,0,1.1-0.2,1.5-0.6c0.4-0.4,0.6-0.8,0.6-1.3
		c0-0.5-0.2-0.9-0.6-1.3c-0.4-0.4-0.9-0.5-1.5-0.5c0,0-0.1,0-0.1,0c-0.1,0-0.1,0-0.2,0h-3.1V40.1z"/>
</g>
<path class="st3" d="M60.6,39.3c2.4-2.3,6.1-2.4,8.6-0.4c2.4,1.9,3.1,5.4,1.6,8.2"/>
<path class="st3" d="M37.5,69.3c-0.2-0.1-1.8-0.9-2.2-2.8c-0.5-2.2,1.1-3.7,1.2-3.8l7.8-8"/>
<circle class="st4" cx="47" cy="52" r="0.5"/>
<line class="st5" x1="62.5" y1="62.5" x2="46.5" y2="46.5"/>
<g>
	<path class="st2" d="M33.7,37.1c-0.2,0.1-0.4,0.1-0.6,0c-0.2-0.1-0.3-0.2-0.4-0.5c-0.1-0.2-0.1-0.4,0-0.6c0.1-0.2,0.2-0.3,0.5-0.4
		l2.1-0.8c0.3-0.1,0.5-0.1,0.7,0.1s0.3,0.4,0.3,0.7v8.2c0,0.2-0.1,0.4-0.2,0.6c-0.2,0.2-0.4,0.2-0.6,0.2s-0.4-0.1-0.6-0.2
		c-0.2-0.2-0.2-0.3-0.2-0.6v-7L33.7,37.1z"/>
	<path class="st2" d="M46.1,43.7c0,0.2-0.1,0.4-0.2,0.6c-0.2,0.2-0.3,0.2-0.6,0.2h-4.1c-0.3,0-0.6-0.1-0.7-0.4s-0.1-0.6,0-0.8
		l3.6-5.3c0.1-0.1,0.1-0.3,0.1-0.4c0-0.3-0.1-0.6-0.4-0.9c-0.2-0.2-0.5-0.3-0.9-0.3c-0.3,0-0.6,0.1-0.8,0.3
		c-0.2,0.2-0.4,0.5-0.4,0.9c0,0,0,0.1,0,0.1c0,0.2-0.1,0.4-0.2,0.6c-0.1,0.2-0.3,0.3-0.6,0.3s-0.4-0.1-0.6-0.2
		c-0.2-0.1-0.3-0.3-0.3-0.6c0-0.1,0-0.1,0-0.2c0-0.8,0.3-1.4,0.8-2s1.2-0.8,2-0.8c0.8,0,1.4,0.3,2,0.8s0.8,1.2,0.8,2
		c0,0.4-0.1,0.8-0.2,1.1c0,0,0,0.1-0.1,0.1l-2.8,4.1h2.6c0.2,0,0.4,0.1,0.6,0.2C46,43.3,46.1,43.5,46.1,43.7z"/>
</g>
</svg>
