<?xml version="1.0" encoding="utf-8"?>
<!-- Generator: Adobe Illustrator 21.1.0, SVG Export Plug-In . SVG Version: 6.00 Build 0)  -->
<svg version="1.1" id="Layer_1" xmlns="http://www.w3.org/2000/svg" xmlns:xlink="http://www.w3.org/1999/xlink" x="0px" y="0px"
	 viewBox="0 0 100 100" style="enable-background:new 0 0 100 100;" xml:space="preserve">
<style type="text/css">
	.st0{fill:none;stroke:#2BB673;stroke-width:3;stroke-miterlimit:10;}
	.st1{fill:#2BB673;stroke:#208956;stroke-width:3;stroke-miterlimit:10;}
	.st2{fill:#FFFFFF;}
	.st3{fill:none;stroke:#208956;stroke-width:2;stroke-linecap:round;stroke-miterlimit:10;}
</style>
<circle class="st0" cx="50" cy="50" r="47.5"/>
<circle class="st1" cx="50" cy="50" r="39.5"/>
<path class="st1" d="M75.5,51.7L51.6,75.7c-4.9,4.9-13,4.9-17.9,0l0,0c-4.9-4.9-4.9-13,0-17.9l23.9-23.9c4.9-4.9,13-4.9,17.9,0l0,0
	C80.5,38.7,80.5,46.8,75.5,51.7z"/>
<g>
	<path class="st2" d="M25.7,42.5c-0.3,0-0.6-0.1-0.9-0.4c-0.2-0.2-0.4-0.5-0.4-0.9V29c0-0.3,0.1-0.6,0.3-0.9
		c0.2-0.2,0.5-0.4,0.9-0.4l4.3,0c1.3,0,2.4,0.4,3.3,1.2c0.9,0.8,1.3,1.8,1.3,3c0,1.1-0.4,2.1-1.3,3c1,0.8,1.5,1.9,1.5,3.2
		c0,1.2-0.5,2.2-1.4,3c-0.9,0.8-2,1.3-3.2,1.3H25.7z M26.9,34H30c0.6,0,1.1-0.2,1.5-0.6c0.4-0.4,0.6-0.8,0.6-1.4
		c0-0.5-0.2-0.9-0.6-1.3c-0.4-0.4-0.9-0.5-1.5-0.5l-3.1,0V34z M26.9,40.1h3.3c0.6,0,1.1-0.2,1.5-0.6c0.4-0.4,0.6-0.8,0.6-1.3
		c0-0.5-0.2-0.9-0.6-1.3c-0.4-0.4-0.9-0.5-1.5-0.5c0,0-0.1,0-0.1,0c-0.1,0-0.1,0-0.2,0h-3.1V40.1z"/>
</g>
<path class="st3" d="M60.6,39.3c2.4-2.3,6.1-2.4,8.6-0.4c2.4,1.9,3.1,5.4,1.6,8.2"/>
<path class="st3" d="M37.5,69.3c-0.2-0.1-1.8-0.9-2.3-2.8c-0.5-2.1,1.1-3.6,1.2-3.7l7.7-7.8"/>
<circle class="st3" cx="46" cy="53" r="0.5"/>
<line class="st1" x1="62.5" y1="62.5" x2="46.5" y2="46.5"/>
<g>
	<path class="st2" d="M39.2,38.8c0.8,0,1.5,0.3,2,0.8c0.6,0.6,0.8,1.2,0.8,2s-0.3,1.5-0.8,2c-0.6,0.6-1.2,0.8-2,0.8s-1.5-0.3-2-0.8
		c-0.6-0.6-0.8-1.2-0.8-2c0-0.3,0.1-0.6,0.2-0.9c0,0,0,0,0,0l0,0c0,0,0,0,0,0l1.9-5.4c0.1-0.2,0.2-0.4,0.4-0.5s0.4-0.1,0.6,0
		s0.4,0.2,0.5,0.4s0.1,0.4,0,0.6l-1.1,3C39,38.8,39.1,38.8,39.2,38.8z M39.2,42.9c0.3,0,0.6-0.1,0.9-0.4c0.2-0.2,0.4-0.5,0.4-0.9
		s-0.1-0.6-0.4-0.9c-0.2-0.2-0.5-0.4-0.9-0.4s-0.6,0.1-0.9,0.4C38.1,41,38,41.3,38,41.6s0.1,0.6,0.4,0.9
		C38.6,42.8,38.9,42.9,39.2,42.9z"/>
</g>
</svg>
