<?xml version="1.0" encoding="utf-8"?>
<!-- Generator: Adobe Illustrator 21.1.0, SVG Export Plug-In . SVG Version: 6.00 Build 0)  -->
<svg version="1.1" id="Layer_1" xmlns="http://www.w3.org/2000/svg" xmlns:xlink="http://www.w3.org/1999/xlink" x="0px" y="0px"
	 viewBox="0 0 100 100" style="enable-background:new 0 0 100 100;" xml:space="preserve">
<style type="text/css">
	.st0{fill:none;stroke:#F466BA;stroke-width:3;stroke-miterlimit:10;}
	.st1{fill:#E9779D;stroke:#EC008C;stroke-width:3;stroke-miterlimit:10;}
	.st2{fill:none;stroke:#EC008C;stroke-width:3;stroke-miterlimit:10;}
	.st3{fill:#FFFFFF;}
	.st4{fill:none;stroke:#EC008C;stroke-width:2;stroke-linecap:round;stroke-miterlimit:10;}
	.st5{fill:none;stroke:#EC008C;stroke-width:2;stroke-miterlimit:10;}
</style>
<circle class="st0" cx="50" cy="50" r="47.5"/>
<circle class="st1" cx="50" cy="50" r="39.5"/>
<path class="st2" d="M71,47.2L47.1,71.2c-4.9,4.9-13,4.9-17.9,0l0,0c-4.9-4.9-4.9-13,0-17.9l23.9-23.9c4.9-4.9,13-4.9,17.9,0l0,0
	C76,34.2,76,42.3,71,47.2z"/>
<g>
	<path class="st3" d="M23.7,40.4c-0.3,0-0.6-0.1-0.9-0.4c-0.2-0.2-0.3-0.5-0.3-0.8V27c0-0.3,0.1-0.6,0.3-0.8
		c0.2-0.2,0.5-0.4,0.9-0.4s0.6,0.1,0.9,0.4c0.2,0.2,0.3,0.5,0.3,0.8v5.4l5.9-6.2c0.2-0.2,0.5-0.4,0.8-0.4c0.3,0,0.6,0.1,0.9,0.3
		c0.2,0.2,0.4,0.5,0.4,0.8c0,0.3-0.1,0.6-0.3,0.9l-4.9,5.2l5.1,5.4c0.2,0.2,0.3,0.5,0.3,0.9s-0.1,0.6-0.4,0.8
		c-0.2,0.2-0.5,0.3-0.8,0.3c-0.3,0-0.6-0.1-0.9-0.4l-5-5.3l-1,1.1v3.3c0,0.3-0.1,0.6-0.3,0.8C24.3,40.3,24,40.4,23.7,40.4z"/>
</g>
<path class="st4" d="M56.1,34.8c2.4-2.3,6.1-2.4,8.6-0.4c2.4,1.9,3.1,5.4,1.6,8.2"/>
<path class="st4" d="M33,64.8c-0.2-0.1-1.8-0.9-2.2-2.8c-0.5-2.2,1.1-3.7,1.2-3.8l7.8-8"/>
<circle class="st5" cx="42.5" cy="47.5" r="0.5"/>
<line class="st2" x1="58" y1="58" x2="42" y2="42"/>
</svg>
